<?xml version="1.0" standalone="no"?><svg xmlns="http://www.w3.org/2000/svg" width="800" height="600" viewBox="0.0 0.0 800.000 600.000" version="1.1">
  <title>Produce by Acme CAD Converter</title>
  <desc>Produce by Acme CAD Converter</desc>
<g id="Visible" display="visible">
<g><path d="M380.8 15.68L367.73 8.13"
fill="none" stroke="black" stroke-width="0.5"/>
</g>
<g><path d="M106.14 287.94L99.97 284.37"
fill="none" stroke="black" stroke-width="0.5"/>
</g>
<g><path d="M13.97 350.36L27.04 357.91"
fill="none" stroke="black" stroke-width="0.5"/>
</g>
<g><path d="M386.93 29.22L386.93 50.35"
fill="none" stroke="black" stroke-width="0.5"/>
</g>
<g><path d="M106.14 287.94L106.14 319.31"
fill="none" stroke="black" stroke-width="0.5"/>
</g>
<g><path d="M41.83 356.44L106.14 319.31"
fill="none" stroke="black" stroke-width="0.5"/>
</g>
<g><path d="M28.76 196.77L352.94 9.6"
fill="none" stroke="black" stroke-width="0.5"/>
</g>
<g><path d="M41.83 204.31L366.01 17.15"
fill="none" stroke="black" stroke-width="0.5"/>
</g>
<g><path d="M78.43 303.93L106.14 287.94"
fill="none" stroke="black" stroke-width="0.5"/>
</g>
<g><path d="M78.43 296.81L119.32 273.2"
fill="none" stroke="black" stroke-width="0.5"/>
</g>
<g><path d="M177.78 171.11L282.35 110.73"
fill="none" stroke="black" stroke-width="0.5"/>
</g>
<g><path d="M7.84 232.99L7.84 336.82"
fill="none" stroke="black" stroke-width="0.5"/>
</g>
<g><path d="M20.92 240.54L20.92 344.37"
fill="none" stroke="black" stroke-width="0.5"/>
</g>
<g><path d="M352.94 9.6L355.28 8.4M355.28 8.4L357.6 7.52M357.6 7.52L359.85 6.97M359.85 6.97L362.02 6.75M362.02 6.75L364.07 6.88M364.07 6.88L365.98 7.34M365.98 7.34L367.73 8.13"
fill="none" stroke="black" stroke-width="0.5"/>
</g>
<g><path d="M13.97 350.36L12.41 349.24M12.41 349.24L11.05 347.82M11.05 347.82L9.91 346.1M9.91 346.1L9.02 344.12M9.02 344.12L8.37 341.89M8.37 341.89L7.97 339.45M7.97 339.45L7.84 336.82"
fill="none" stroke="black" stroke-width="0.5"/>
</g>
<g><path d="M328.84 85.89L329.83 84.18M329.83 84.18L330.97 82.61M330.97 82.61L332.24 81.23M332.24 81.23L333.6 80.08M333.6 80.08L334.98 79.2M334.98 79.2L336.36 78.63M336.36 78.63L337.68 78.38M337.68 78.38L338.89 78.46M338.89 78.46L339.96 78.87M339.96 78.87L340.85 79.59M340.85 79.59L341.53 80.6M341.53 80.6L341.97 81.87M341.97 81.87L342.16 83.35M342.16 83.35L342.1 84.99M342.1 84.99L341.78 86.74M341.78 86.74L341.22 88.53M341.22 88.53L340.43 90.31M340.43 90.31L339.44 92.01"
fill="none" stroke="black" stroke-width="0.5"/>
</g>
<g><path d="M7.84 232.99L7.97 230.21M7.97 230.21L8.37 227.31M8.37 227.31L9.02 224.34M9.02 224.34L9.91 221.32M9.91 221.32L11.05 218.29M11.05 218.29L12.41 215.3M12.41 215.3L13.97 212.38M13.97 212.38L15.72 209.56M15.72 209.56L17.63 206.89M17.63 206.89L19.68 204.4M19.68 204.4L21.85 202.11M21.85 202.11L24.1 200.06M24.1 200.06L26.42 198.27M26.42 198.27L28.76 196.77"
fill="none" stroke="black" stroke-width="0.5"/>
</g>
<g><path d="M119.69 206.64L120.67 204.94M120.67 204.94L121.82 203.37M121.82 203.37L123.09 201.98M123.09 201.98L124.45 200.83M124.45 200.83L125.83 199.96M125.83 199.96L127.21 199.38M127.21 199.38L128.53 199.13M128.53 199.13L129.74 199.21M129.74 199.21L130.81 199.62M130.81 199.62L131.7 200.34M131.7 200.34L132.38 201.35M132.38 201.35L132.82 202.62M132.82 202.62L133.01 204.1M133.01 204.1L132.95 205.74M132.95 205.74L132.63 207.49M132.63 207.49L132.07 209.28M132.07 209.28L131.28 211.06M131.28 211.06L130.29 212.76"
fill="none" stroke="black" stroke-width="0.5"/>
</g>
<g><path d="M20.92 344.37L21.05 347M21.05 347L21.44 349.44M21.44 349.44L22.09 351.67M22.09 351.67L22.99 353.65M22.99 353.65L24.12 355.37M24.12 355.37L25.48 356.79M25.48 356.79L27.04 357.91M27.04 357.91L28.79 358.7M28.79 358.7L30.7 359.17M30.7 359.17L32.76 359.29M32.76 359.29L34.92 359.08M34.92 359.08L37.18 358.52M37.18 358.52L39.49 357.64M39.49 357.64L41.83 356.44"
fill="none" stroke="black" stroke-width="0.5"/>
</g>
<g><path d="M386.93 29.22L386.8 26.59M386.8 26.59L386.4 24.15M386.4 24.15L385.75 21.92M385.75 21.92L384.86 19.94M384.86 19.94L383.72 18.22M383.72 18.22L382.37 16.8M382.37 16.8L380.8 15.68M380.8 15.68L379.05 14.89M379.05 14.89L377.14 14.42M377.14 14.42L375.09 14.3M375.09 14.3L372.92 14.51M372.92 14.51L370.67 15.06M370.67 15.06L368.35 15.95M368.35 15.95L366.01 17.15"
fill="none" stroke="black" stroke-width="0.5"/>
</g>
<g><path d="M78.43 303.93L77.24 304.46M77.24 304.46L76.11 304.65M76.11 304.65L75.11 304.48M75.11 304.48L74.28 303.96M74.28 303.96L73.66 303.13"
fill="none" stroke="black" stroke-width="0.5"/>
</g>
<g><path d="M41.83 204.31L39.49 205.82M39.49 205.82L37.18 207.61M37.18 207.61L34.92 209.66M34.92 209.66L32.76 211.94M32.76 211.94L30.7 214.44M30.7 214.44L28.79 217.11M28.79 217.11L27.04 219.92M27.04 219.92L25.48 222.85M25.48 222.85L24.12 225.84M24.12 225.84L22.99 228.86M22.99 228.86L22.09 231.88M22.09 231.88L21.44 234.86M21.44 234.86L21.05 237.76M21.05 237.76L20.92 240.54"
fill="none" stroke="black" stroke-width="0.5"/>
</g>
<g><path d="M73.66 303.13L74.28 301.58M74.28 301.58L75.11 300.11M75.11 300.11L76.11 298.77M76.11 298.77L77.24 297.66M77.24 297.66L78.43 296.81"
fill="none" stroke="black" stroke-width="0.5"/>
</g>
<g><path d="M664.05 297.9L758.17 243.56"
fill="none" stroke="black" stroke-width="0.5"/>
</g>
<g><path d="M564.71 400.54L569.93 397.52"
fill="none" stroke="black" stroke-width="0.5"/>
</g>
<g><path d="M569.93 397.52L583.01 405.06"
fill="none" stroke="black" stroke-width="0.5"/>
</g>
<g><path d="M505.2 518.33L511.37 521.9"
fill="none" stroke="black" stroke-width="0.5"/>
</g>
<g><path d="M447.06 590.4L511.37 553.27"
fill="none" stroke="black" stroke-width="0.5"/>
</g>
<g><path d="M792.16 263.18L792.16 328.51"
fill="none" stroke="black" stroke-width="0.5"/>
</g>
<g><path d="M413.07 466.95L413.07 570.78"
fill="none" stroke="black" stroke-width="0.5"/>
</g>
<g><path d="M786.03 249.64L772.96 242.09"
fill="none" stroke="black" stroke-width="0.5"/>
</g>
<g><path d="M483.66 537.89L511.37 521.9"
fill="none" stroke="black" stroke-width="0.5"/>
</g>
<g><path d="M483.66 530.77L771.24 364.73"
fill="none" stroke="black" stroke-width="0.5"/>
</g>
<g><path d="M511.37 521.9L511.37 553.27"
fill="none" stroke="black" stroke-width="0.5"/>
</g>
<g><path d="M643.14 355.25L656.21 362.8"
fill="none" stroke="black" stroke-width="0.5"/>
</g>
<g><path d="M583.01 405.06L577.78 408.08"
fill="none" stroke="black" stroke-width="0.5"/>
</g>
<g><path d="M426.14 474.5L426.14 578.33"
fill="none" stroke="black" stroke-width="0.5"/>
</g>
<g><path d="M447.06 438.27L556.86 374.88"
fill="none" stroke="black" stroke-width="0.5"/>
</g>
<g><path d="M656.21 362.8L656.21 341.67"
fill="none" stroke="black" stroke-width="0.5"/>
</g>
<g><path d="M556.86 396.01L556.86 374.88"
fill="none" stroke="black" stroke-width="0.5"/>
</g>
<g><path d="M583.01 405.06L583.01 420.16"
fill="none" stroke="black" stroke-width="0.5"/>
</g>
<g><path d="M687.58 359.78L583.01 420.16"
fill="none" stroke="black" stroke-width="0.5"/>
</g>
<g><path d="M687.58 344.69L687.58 359.78"
fill="none" stroke="black" stroke-width="0.5"/>
</g>
<g><path d="M687.58 344.69L656.21 362.8"
fill="none" stroke="black" stroke-width="0.5"/>
</g>
<g><path d="M643.14 334.12L643.14 355.25"
fill="none" stroke="black" stroke-width="0.5"/>
</g>
<g><path d="M677.12 305.44L771.24 251.1"
fill="none" stroke="black" stroke-width="0.5"/>
</g>
<g><path d="M433.99 430.72L543.79 367.33"
fill="none" stroke="black" stroke-width="0.5"/>
</g>
<g><path d="M543.79 367.33L556.86 374.88"
fill="none" stroke="black" stroke-width="0.5"/>
</g>
<g><path d="M419.2 584.32L432.27 591.87"
fill="none" stroke="black" stroke-width="0.5"/>
</g>
<g><path d="M557.98 403.14L560.17 402.58M560.17 402.58L562.43 401.71M562.43 401.71L564.71 400.54"
fill="none" stroke="black" stroke-width="0.5"/>
</g>
<g><path d="M677.12 305.44L674.78 306.95M674.78 306.95L672.47 308.74M672.47 308.74L670.22 310.79M670.22 310.79L668.05 313.07M668.05 313.07L666 315.57M666 315.57L664.08 318.24M664.08 318.24L662.34 321.06M662.34 321.06L660.77 323.98M660.77 323.98L659.41 326.97M659.41 326.97L658.28 329.99M658.28 329.99L657.38 333.02M657.38 333.02L656.73 335.99M656.73 335.99L656.34 338.89M656.34 338.89L656.21 341.67"
fill="none" stroke="black" stroke-width="0.5"/>
</g>
<g><path d="M447.06 438.27L444.72 439.78M444.72 439.78L442.4 441.56M442.4 441.56L440.15 443.62M440.15 443.62L437.98 445.9M437.98 445.9L435.93 448.4M435.93 448.4L434.02 451.07M434.02 451.07L432.27 453.88M432.27 453.88L430.71 456.81M430.71 456.81L429.35 459.8M429.35 459.8L428.22 462.82M428.22 462.82L427.32 465.84M427.32 465.84L426.67 468.82M426.67 468.82L426.28 471.72M426.28 471.72L426.14 474.5"
fill="none" stroke="black" stroke-width="0.5"/>
</g>
<g><path d="M758.17 243.56L760.51 242.36M760.51 242.36L762.82 241.48M762.82 241.48L765.08 240.92M765.08 240.92L767.24 240.71M767.24 240.71L769.3 240.83M769.3 240.83L771.21 241.3M771.21 241.3L772.96 242.09"
fill="none" stroke="black" stroke-width="0.5"/>
</g>
<g><path d="M413.07 466.95L413.2 464.17M413.2 464.17L413.6 461.27M413.6 461.27L414.25 458.3M414.25 458.3L415.14 455.28M415.14 455.28L416.28 452.25M416.28 452.25L417.63 449.26M417.63 449.26L419.2 446.34M419.2 446.34L420.95 443.52M420.95 443.52L422.86 440.85M422.86 440.85L424.91 438.36M424.91 438.36L427.08 436.07M427.08 436.07L429.33 434.02M429.33 434.02L431.65 432.23M431.65 432.23L433.99 430.72"
fill="none" stroke="black" stroke-width="0.5"/>
</g>
<g><path d="M771.24 364.73L773.58 363.23M773.58 363.23L775.9 361.44M775.9 361.44L778.15 359.39M778.15 359.39L780.32 357.1M780.32 357.1L782.37 354.61M782.37 354.61L784.28 351.94M784.28 351.94L786.03 349.12M786.03 349.12L787.59 346.2M787.59 346.2L788.95 343.21M788.95 343.21L790.09 340.18M790.09 340.18L790.98 337.16M790.98 337.16L791.63 334.18M791.63 334.18L792.03 331.29M792.03 331.29L792.16 328.51"
fill="none" stroke="black" stroke-width="0.5"/>
</g>
<g><path d="M536.04 433.58L534.94 433.16M534.94 433.16L533.68 433.1M533.68 433.1L532.32 433.38M532.32 433.38L530.9 434M530.9 434L529.47 434.95M529.47 434.95L528.09 436.17M528.09 436.17L526.8 437.64M526.8 437.64L525.65 439.29M525.65 439.29L524.69 441.07M524.69 441.07L523.95 442.91M523.95 442.91L523.45 444.75M523.45 444.75L523.21 446.52M523.21 446.52L523.24 448.15M523.24 448.15L523.55 449.59M523.55 449.59L524.11 450.78M524.11 450.78L524.91 451.69M524.91 451.69L525.93 452.27M525.93 452.27L527.11 452.51M527.11 452.51L528.43 452.4M528.43 452.4L529.83 451.95M529.83 451.95L531.26 451.16M531.26 451.16L532.67 450.07M532.67 450.07L534.01 448.72M534.01 448.72L535.23 447.15M535.23 447.15L536.29 445.43M536.29 445.43L537.15 443.61M537.15 443.61L537.77 441.77M537.77 441.77L538.14 439.95M538.14 439.95L538.25 438.25M538.25 438.25L538.08 436.7M538.08 436.7L537.64 435.38M537.64 435.38L536.95 434.33M536.95 434.33L536.04 433.58"
fill="none" stroke="black" stroke-width="0.5"/>
</g>
<g><path d="M745.19 312.83L744.09 312.41M744.09 312.41L742.83 312.34M742.83 312.34L741.47 312.63M741.47 312.63L740.05 313.25M740.05 313.25L738.62 314.19M738.62 314.19L737.24 315.42M737.24 315.42L735.95 316.89M735.95 316.89L734.8 318.54M734.8 318.54L733.84 320.32M733.84 320.32L733.1 322.16M733.1 322.16L732.6 324M732.6 324L732.36 325.76M732.36 325.76L732.39 327.4M732.39 327.4L732.7 328.83M732.7 328.83L733.26 330.03M733.26 330.03L734.06 330.93M734.06 330.93L735.08 331.52M735.08 331.52L736.26 331.76M736.26 331.76L737.58 331.65M737.58 331.65L738.98 331.2M738.98 331.2L740.41 330.41M740.41 330.41L741.82 329.32M741.82 329.32L743.16 327.97M743.16 327.97L744.38 326.4M744.38 326.4L745.44 324.68M745.44 324.68L746.3 322.86M746.3 322.86L746.92 321.01M746.92 321.01L747.29 319.2M747.29 319.2L747.4 317.49M747.4 317.49L747.23 315.95M747.23 315.95L746.79 314.63M746.79 314.63L746.1 313.57M746.1 313.57L745.19 312.83"
fill="none" stroke="black" stroke-width="0.5"/>
</g>
<g><path d="M792.16 263.18L792.03 260.55M792.03 260.55L791.63 258.11M791.63 258.11L790.98 255.88M790.98 255.88L790.09 253.9M790.09 253.9L788.95 252.18M788.95 252.18L787.59 250.76M787.59 250.76L786.03 249.64M786.03 249.64L784.28 248.84M784.28 248.84L782.37 248.38M782.37 248.38L780.32 248.26M780.32 248.26L778.15 248.47M778.15 248.47L775.9 249.02M775.9 249.02L773.58 249.9M773.58 249.9L771.24 251.1"
fill="none" stroke="black" stroke-width="0.5"/>
</g>
<g><path d="M478.89 537.08L479.5 535.54M479.5 535.54L480.34 534.07M480.34 534.07L481.34 532.73M481.34 532.73L482.47 531.61M482.47 531.61L483.66 530.77"
fill="none" stroke="black" stroke-width="0.5"/>
</g>
<g><path d="M643.14 334.12L643.27 331.34M643.27 331.34L643.66 328.45M643.66 328.45L644.31 325.47M644.31 325.47L645.21 322.45M645.21 322.45L646.34 319.42M646.34 319.42L647.7 316.43M647.7 316.43L649.26 313.51M649.26 313.51L651.01 310.69M651.01 310.69L652.92 308.02M652.92 308.02L654.98 305.53M654.98 305.53L657.14 303.24M657.14 303.24L659.4 301.19M659.4 301.19L661.71 299.4M661.71 299.4L664.05 297.9"
fill="none" stroke="black" stroke-width="0.5"/>
</g>
<g><path d="M419.2 584.32L417.63 583.2M417.63 583.2L416.28 581.78M416.28 581.78L415.14 580.06M415.14 580.06L414.25 578.08M414.25 578.08L413.6 575.85M413.6 575.85L413.2 573.41M413.2 573.41L413.07 570.78"
fill="none" stroke="black" stroke-width="0.5"/>
</g>
<g><path d="M426.14 578.33L426.28 580.95M426.28 580.95L426.67 583.4M426.67 583.4L427.32 585.62M427.32 585.62L428.22 587.61M428.22 587.61L429.35 589.32M429.35 589.32L430.71 590.75M430.71 590.75L432.27 591.87M432.27 591.87L434.02 592.66M434.02 592.66L435.93 593.12M435.93 593.12L437.98 593.25M437.98 593.25L440.15 593.03M440.15 593.03L442.4 592.48M442.4 592.48L444.72 591.6M444.72 591.6L447.06 590.4"
fill="none" stroke="black" stroke-width="0.5"/>
</g>
<g><path d="M483.66 537.89L482.47 538.42M482.47 538.42L481.34 538.61M481.34 538.61L480.34 538.43M480.34 538.43L479.5 537.92M479.5 537.92L478.89 537.08"
fill="none" stroke="black" stroke-width="0.5"/>
</g>
<g><path d="M577.78 408.08L575.44 409.28M575.44 409.28L573.12 410.16M573.12 410.16L570.87 410.72M570.87 410.72L568.7 410.93M568.7 410.93L566.65 410.81M566.65 410.81L564.74 410.34M564.74 410.34L562.99 409.55M562.99 409.55L561.43 408.43M561.43 408.43L560.07 407.01M560.07 407.01L558.93 405.29M558.93 405.29L558.04 403.31M558.04 403.31L557.39 401.08M557.39 401.08L556.99 398.64M556.99 398.64L556.86 396.01"
fill="none" stroke="black" stroke-width="0.5"/>
</g>
<g><path d="M365.56 104.79L342.17 91.29"
fill="none" stroke="black" stroke-width="0.5"/>
</g>
<g><path d="M365.56 104.79L374.68 99.52"
fill="none" stroke="black" stroke-width="0.5"/>
</g>
<g><path d="M365.56 89.7L365.56 104.79"
fill="none" stroke="black" stroke-width="0.5"/>
</g>
<g><path d="M350.5 98.39L350.5 108.93"
fill="none" stroke="black" stroke-width="0.5"/>
</g>
<g><path d="M156.41 225.54L165.53 220.27"
fill="none" stroke="black" stroke-width="0.5"/>
</g>
<g><path d="M133.02 196.95L133.02 212.04"
fill="none" stroke="black" stroke-width="0.5"/>
</g>
<g><path d="M156.41 210.45L156.41 225.54"
fill="none" stroke="black" stroke-width="0.5"/>
</g>
<g><path d="M168.47 221.97L165.53 220.27"
fill="none" stroke="black" stroke-width="0.5"/>
</g>
<g><path d="M165.53 205.18L165.53 220.27"
fill="none" stroke="black" stroke-width="0.5"/>
</g>
<g><path d="M353.44 110.62L341.37 103.66"
fill="none" stroke="black" stroke-width="0.5"/>
</g>
<g><path d="M569.93 397.52L583.01 405.06"
fill="none" stroke="black" stroke-width="0.5"/>
</g>
<g><path d="M353.44 110.62L362.56 105.36"
fill="none" stroke="black" stroke-width="0.5"/>
</g>
<g><path d="M350.5 98.39L327.11 84.89"
fill="none" stroke="black" stroke-width="0.5"/>
</g>
<g><path d="M366.95 107.89L362.56 105.36"
fill="none" stroke="black" stroke-width="0.5"/>
</g>
<g><path d="M366.95 107.89L382.01 99.2"
fill="none" stroke="black" stroke-width="0.5"/>
</g>
<g><path d="M382.01 99.2L377.62 96.66"
fill="none" stroke="black" stroke-width="0.5"/>
</g>
<g><path d="M377.62 96.66L386.75 91.39"
fill="none" stroke="black" stroke-width="0.5"/>
</g>
<g><path d="M157.8 228.64L153.41 226.11"
fill="none" stroke="black" stroke-width="0.5"/>
</g>
<g><path d="M342.17 76.19L342.17 91.29"
fill="none" stroke="black" stroke-width="0.5"/>
</g>
<g><path d="M374.68 84.43L374.68 99.52"
fill="none" stroke="black" stroke-width="0.5"/>
</g>
<g><path d="M365.56 89.7L374.68 84.43"
fill="none" stroke="black" stroke-width="0.5"/>
</g>
<g><path d="M365.56 89.7L342.17 76.19"
fill="none" stroke="black" stroke-width="0.5"/>
</g>
<g><path d="M386.93 50.35L342.17 76.19"
fill="none" stroke="black" stroke-width="0.5"/>
</g>
<g><path d="M377.62 101.22L374.68 99.52"
fill="none" stroke="black" stroke-width="0.5"/>
</g>
<g><path d="M564.71 400.54L569.93 397.52"
fill="none" stroke="black" stroke-width="0.5"/>
</g>
<g><path d="M694.48 279.6L695.11 279.96"
fill="none" stroke="black" stroke-width="0.5"/>
</g>
<g><path d="M694.48 279.6L679.42 288.3"
fill="none" stroke="black" stroke-width="0.5"/>
</g>
<g><path d="M156.41 210.45L133.02 196.95"
fill="none" stroke="black" stroke-width="0.5"/>
</g>
<g><path d="M679.42 288.3L680.05 288.66"
fill="none" stroke="black" stroke-width="0.5"/>
</g>
<g><path d="M687.58 344.69L583.01 405.06"
fill="none" stroke="black" stroke-width="0.5"/>
</g>
<g><path d="M485.33 400.36L485.96 400.72"
fill="none" stroke="black" stroke-width="0.5"/>
</g>
<g><path d="M156.41 225.54L133.02 212.04"
fill="none" stroke="black" stroke-width="0.5"/>
</g>
<g><path d="M327.11 84.89L282.35 110.73"
fill="none" stroke="black" stroke-width="0.5"/>
</g>
<g><path d="M485.33 400.36L470.27 409.05"
fill="none" stroke="black" stroke-width="0.5"/>
</g>
<g><path d="M470.27 409.05L470.9 409.41"
fill="none" stroke="black" stroke-width="0.5"/>
</g>
<g><path d="M73.2 231.48L427.26 435.9"
fill="none" stroke="black" stroke-width="0.5"/>
</g>
<g><path d="M117.96 205.64L73.2 231.48"
fill="none" stroke="black" stroke-width="0.5"/>
</g>
<g><path d="M386.75 91.39L374.68 84.43"
fill="none" stroke="black" stroke-width="0.5"/>
</g>
<g><path d="M687.58 344.69L687.58 359.78"
fill="none" stroke="black" stroke-width="0.5"/>
</g>
<g><path d="M177.59 212.15L165.53 205.18"
fill="none" stroke="black" stroke-width="0.5"/>
</g>
<g><path d="M141.35 219.14L117.96 205.64"
fill="none" stroke="black" stroke-width="0.5"/>
</g>
<g><path d="M141.35 219.14L141.35 229.68"
fill="none" stroke="black" stroke-width="0.5"/>
</g>
<g><path d="M144.29 231.38L132.22 224.41"
fill="none" stroke="black" stroke-width="0.5"/>
</g>
<g><path d="M157.8 228.64L172.86 219.95"
fill="none" stroke="black" stroke-width="0.5"/>
</g>
<g><path d="M156.41 210.45L165.53 205.18"
fill="none" stroke="black" stroke-width="0.5"/>
</g>
<g><path d="M144.29 231.38L153.41 226.11"
fill="none" stroke="black" stroke-width="0.5"/>
</g>
<g><path d="M177.78 171.11L133.02 196.95"
fill="none" stroke="black" stroke-width="0.5"/>
</g>
<g><path d="M386.93 50.35L739.87 254.12"
fill="none" stroke="black" stroke-width="0.5"/>
</g>
<g><path d="M168.47 217.41L177.59 212.15"
fill="none" stroke="black" stroke-width="0.5"/>
</g>
<g><path d="M341.37 103.66L350.5 98.39"
fill="none" stroke="black" stroke-width="0.5"/>
</g>
<g><path d="M377.62 96.66L377.62 101.73"
fill="none" stroke="black" stroke-width="0.5"/>
</g>
<g><path d="M485.33 400.36L485.33 401.08"
fill="none" stroke="black" stroke-width="0.5"/>
</g>
<g><path d="M73.2 246.58L419.2 446.34"
fill="none" stroke="black" stroke-width="0.5"/>
</g>
<g><path d="M73.2 246.58L73.2 231.48"
fill="none" stroke="black" stroke-width="0.5"/>
</g>
<g><path d="M172.86 219.95L168.47 217.41"
fill="none" stroke="black" stroke-width="0.5"/>
</g>
<g><path d="M583.01 405.06L583.01 420.16"
fill="none" stroke="black" stroke-width="0.5"/>
</g>
<g><path d="M687.58 359.78L583.01 420.16"
fill="none" stroke="black" stroke-width="0.5"/>
</g>
<g><path d="M694.48 279.6L694.48 280.33"
fill="none" stroke="black" stroke-width="0.5"/>
</g>
<g><path d="M132.22 224.41L141.35 219.14"
fill="none" stroke="black" stroke-width="0.5"/>
</g>
<g><path d="M168.47 217.41L168.47 222.49"
fill="none" stroke="black" stroke-width="0.5"/>
</g>
<g><path d="M410.19 136.39L410.39 137.56M410.39 137.56L410.96 138.69M410.96 138.69L411.89 139.74M411.89 139.74L413.16 140.66M413.16 140.66L414.7 141.43M414.7 141.43L416.46 142.02M416.46 142.02L418.39 142.41M418.39 142.41L420.4 142.57M420.4 142.57L422.44 142.52M422.44 142.52L424.42 142.24M424.42 142.24L426.28 141.75M426.28 141.75L427.94 141.07M427.94 141.07L429.34 140.22M429.34 140.22L430.45 139.23M430.45 139.23L431.2 138.13M431.2 138.13L431.59 136.98M431.59 136.98L431.59 135.8M431.59 135.8L431.2 134.65M431.2 134.65L430.45 133.55M430.45 133.55L429.34 132.56M429.34 132.56L427.94 131.71M427.94 131.71L426.28 131.03M426.28 131.03L424.42 130.54M424.42 130.54L422.44 130.26M422.44 130.26L420.4 130.21M420.4 130.21L418.39 130.37M418.39 130.37L416.46 130.76M416.46 130.76L414.7 131.35M414.7 131.35L413.16 132.12M413.16 132.12L411.89 133.04M411.89 133.04L410.96 134.09M410.96 134.09L410.39 135.22M410.39 135.22L410.19 136.39"
fill="none" stroke="black" stroke-width="0.5"/>
</g>
<g><path d="M638.27 246.21L638.47 247.39M638.47 247.39L639.04 248.51M639.04 248.51L639.97 249.56M639.97 249.56L641.23 250.49M641.23 250.49L642.77 251.26M642.77 251.26L644.54 251.85M644.54 251.85L646.47 252.23M646.47 252.23L648.48 252.4M648.48 252.4L650.52 252.34M650.52 252.34L652.5 252.06M652.5 252.06L654.35 251.58M654.35 251.58L656.01 250.89M656.01 250.89L657.42 250.04M657.42 250.04L658.52 249.05M658.52 249.05L659.28 247.96M659.28 247.96L659.67 246.8M659.67 246.8L659.67 245.63M659.67 245.63L659.28 244.47M659.28 244.47L658.52 243.38M658.52 243.38L657.42 242.39M657.42 242.39L656.01 241.54M656.01 241.54L654.35 240.85M654.35 240.85L652.5 240.36M652.5 240.36L650.52 240.09M650.52 240.09L648.48 240.03M648.48 240.03L646.47 240.2M646.47 240.2L644.54 240.58M644.54 240.58L642.77 241.17M642.77 241.17L641.23 241.94M641.23 241.94L639.97 242.87M639.97 242.87L639.04 243.91M639.04 243.91L638.47 245.04M638.47 245.04L638.27 246.21"
fill="none" stroke="black" stroke-width="0.5"/>
</g>
<g><path d="M295.16 202.8L295.35 203.97M295.35 203.97L295.93 205.1M295.93 205.1L296.86 206.15M296.86 206.15L298.12 207.08M298.12 207.08L299.66 207.85M299.66 207.85L301.43 208.43M301.43 208.43L303.35 208.82M303.35 208.82L305.37 208.99M305.37 208.99L307.41 208.93M307.41 208.93L309.39 208.65M309.39 208.65L311.24 208.16M311.24 208.16L312.9 207.48M312.9 207.48L314.31 206.63M314.31 206.63L315.41 205.64M315.41 205.64L316.17 204.55M316.17 204.55L316.56 203.39M316.56 203.39L316.56 202.21M316.56 202.21L316.17 201.06M316.17 201.06L315.41 199.97M315.41 199.97L314.31 198.98M314.31 198.98L312.9 198.12M312.9 198.12L311.24 197.44M311.24 197.44L309.39 196.95M309.39 196.95L307.41 196.68M307.41 196.68L305.37 196.62M305.37 196.62L303.35 196.79M303.35 196.79L301.43 197.17M301.43 197.17L299.66 197.76M299.66 197.76L298.12 198.53M298.12 198.53L296.86 199.46M296.86 199.46L295.93 200.5M295.93 200.5L295.35 201.63M295.35 201.63L295.16 202.8"
fill="none" stroke="black" stroke-width="0.5"/>
</g>
<g><path d="M441.57 359.78L441.76 360.95M441.76 360.95L442.33 362.08M442.33 362.08L443.27 363.13M443.27 363.13L444.53 364.05M444.53 364.05L446.07 364.82M446.07 364.82L447.83 365.41M447.83 365.41L449.76 365.8M449.76 365.8L451.78 365.97M451.78 365.97L453.81 365.91M453.81 365.91L455.79 365.63M455.79 365.63L457.65 365.14M457.65 365.14L459.31 364.46M459.31 364.46L460.72 363.61M460.72 363.61L461.82 362.62M461.82 362.62L462.58 361.53M462.58 361.53L462.96 360.37M462.96 360.37L462.96 359.19M462.96 359.19L462.58 358.04M462.58 358.04L461.82 356.95M461.82 356.95L460.72 355.96M460.72 355.96L459.31 355.1M459.31 355.1L457.65 354.42M457.65 354.42L455.79 353.93M455.79 353.93L453.81 353.65M453.81 353.65L451.78 353.6M451.78 353.6L449.76 353.77M449.76 353.77L447.83 354.15M447.83 354.15L446.07 354.74M446.07 354.74L444.53 355.51M444.53 355.51L443.27 356.44M443.27 356.44L442.33 357.48M442.33 357.48L441.76 358.61M441.76 358.61L441.57 359.78"
fill="none" stroke="black" stroke-width="0.5"/>
</g>
</g>
<g id="TANGENT_LINES" display="visible">
<g><path d="M366.01 17.15L352.94 9.6"
fill="none" stroke="black" stroke-width="0.5"/>
</g>
<g><path d="M74.29 301.55L78.43 303.93"
fill="none" stroke="black" stroke-width="0.5"/>
</g>
<g><path d="M7.84 336.82L20.92 344.37"
fill="none" stroke="black" stroke-width="0.5"/>
</g>
<g><path d="M20.92 240.54L7.84 232.99"
fill="none" stroke="black" stroke-width="0.5"/>
</g>
<g><path d="M28.76 196.77L41.83 204.31"
fill="none" stroke="black" stroke-width="0.5"/>
</g>
<g><path d="M771.24 251.1L758.17 243.56"
fill="none" stroke="black" stroke-width="0.5"/>
</g>
<g><path d="M656.21 341.67L643.14 334.12"
fill="none" stroke="black" stroke-width="0.5"/>
</g>
<g><path d="M479.52 535.5L483.66 537.89"
fill="none" stroke="black" stroke-width="0.5"/>
</g>
<g><path d="M564.71 400.54L577.78 408.08"
fill="none" stroke="black" stroke-width="0.5"/>
</g>
<g><path d="M426.14 474.5L413.07 466.95"
fill="none" stroke="black" stroke-width="0.5"/>
</g>
<g><path d="M433.99 430.72L447.06 438.27"
fill="none" stroke="black" stroke-width="0.5"/>
</g>
<g><path d="M664.05 297.9L677.12 305.44"
fill="none" stroke="black" stroke-width="0.5"/>
</g>
<g><path d="M413.07 570.78L426.14 578.33"
fill="none" stroke="black" stroke-width="0.5"/>
</g>
</g>
</svg>
