<?xml version="1.0" standalone="no"?><svg xmlns="http://www.w3.org/2000/svg" width="800.000" height="600.000" viewBox="0.0 0.0 800.000 600.000" version="1.1">
  <title>Produce by Acme CAD Converter</title>
  <desc>Produce by Acme CAD Converter</desc>
<g id="Visible" display="visible">
<g><path d="M98.72 75.51L150.74 105.54"
fill="none" stroke="black" stroke-width="0.5"/>
</g>
<g><path d="M170.34 71.68L118.28 41.62"
fill="none" stroke="black" stroke-width="0.5"/>
</g>
<g><path d="M85.78 47.75L95.58 71.72"
fill="none" stroke="black" stroke-width="0.5"/>
</g>
<g><path d="M113.44 40.79L87.77 44.29"
fill="none" stroke="black" stroke-width="0.5"/>
</g>
<g><path d="M168.8 150.72L184.68 159.89"
fill="none" stroke="black" stroke-width="0.5"/>
</g>
<g><path d="M234.34 73.88L218.46 64.7"
fill="none" stroke="black" stroke-width="0.5"/>
</g>
<g><path d="M272.48 211.85L346.86 255.87"
fill="none" stroke="black" stroke-width="0.5"/>
</g>
<g><path d="M184.61 159.84L187.37 161.48"
fill="none" stroke="black" stroke-width="0.5"/>
</g>
<g><path d="M432.18 306.37L464.39 325.43"
fill="none" stroke="black" stroke-width="0.5"/>
</g>
<g><path d="M238.06 75.97L234.26 73.83"
fill="none" stroke="black" stroke-width="0.5"/>
</g>
<g><path d="M150.73 105.53L150.67 105.8M150.67 105.8L149.9 111.24M149.9 111.24L149.7 116.11M149.7 116.11L149.98 120.86M149.98 120.86L150.73 125.42M150.73 125.42L151.92 129.77M151.92 129.77L153.55 133.88M153.55 133.88L155.6 137.74M155.6 137.74L158.04 141.3M158.04 141.3L160.85 144.53M160.85 144.53L164.33 147.67M164.33 147.67L168.09 150.3M168.09 150.3L168.83 150.73"
fill="none" stroke="black" stroke-width="0.5"/>
</g>
<g><path d="M170.29 71.65L168.18 73.59M168.18 73.59L164.62 77.37M164.62 77.37L161.37 81.49M161.37 81.49L158.45 85.89M158.45 85.89L155.89 90.55M155.89 90.55L153.72 95.43M153.72 95.43L151.96 100.52M151.96 100.52L150.73 105.53"
fill="none" stroke="black" stroke-width="0.5"/>
</g>
<g><path d="M218.48 64.72L218.28 64.6M218.28 64.6L214.24 62.62M214.24 62.62L210.06 61.16M210.06 61.16L205.77 60.22M205.77 60.22L201.44 59.79M201.44 59.79L197.09 59.85M197.09 59.85L192.76 60.39M192.76 60.39L188.47 61.41M188.47 61.41L184.22 62.9M184.22 62.9L180.05 64.86M180.05 64.86L175.95 67.3M175.95 67.3L171.98 70.22M171.98 70.22L170.29 71.65"
fill="none" stroke="black" stroke-width="0.5"/>
</g>
<g><path d="M85.78 47.75L85.68 47.14M85.68 47.14L85.8 46.4M85.8 46.4L86.13 45.65M86.13 45.65L86.62 44.98M86.62 44.98L87.19 44.51M87.19 44.51L87.77 44.29"
fill="none" stroke="black" stroke-width="0.5"/>
</g>
<g><path d="M449.51 234L452.11 231.27M452.11 231.27L454.78 228.73M454.78 228.73L457.51 226.39M457.51 226.39L460.28 224.26M460.28 224.26L463.08 222.36M463.08 222.36L465.89 220.7M465.89 220.7L468.7 219.28"
fill="none" stroke="black" stroke-width="0.5"/>
</g>
<g><path d="M184.61 159.84L182.5 158.37M182.5 158.37L180.62 156.56M180.62 156.56L178.96 154.44M178.96 154.44L177.55 152.01M177.55 152.01L176.39 149.31M176.39 149.31L175.5 146.35M175.5 146.35L174.89 143.15M174.89 143.15L174.55 139.75M174.55 139.75L174.49 136.16M174.49 136.16L174.71 132.42M174.71 132.42L175.21 128.55M175.21 128.55L175.98 124.59M175.98 124.59L177.02 120.57M177.02 120.57L178.32 116.53M178.32 116.53L179.87 112.48M179.87 112.48L181.66 108.47M181.66 108.47L183.68 104.53M183.68 104.53L185.89 100.68M185.89 100.68L188.3 96.97M188.3 96.97L190.88 93.41M190.88 93.41L193.61 90.05M193.61 90.05L196.46 86.9M196.46 86.9L199.42 83.98M199.42 83.98L202.47 81.34M202.47 81.34L205.56 78.97M205.56 78.97L208.7 76.91M208.7 76.91L211.83 75.17M211.83 75.17L214.95 73.76M214.95 73.76L218.03 72.7M218.03 72.7L221.04 71.99M221.04 71.99L223.96 71.63M223.96 71.63L226.76 71.64M226.76 71.64L229.43 72.02M229.43 72.02L231.93 72.75M231.93 72.75L234.26 73.83"
fill="none" stroke="black" stroke-width="0.5"/>
</g>
<g><path d="M98.72 75.51L97.43 74.53M97.43 74.53L96.36 73.23M96.36 73.23L95.54 71.63M95.54 71.63L94.99 69.76M94.99 69.76L94.71 67.67M94.71 67.67L94.71 65.39M94.71 65.39L94.99 62.97M94.99 62.97L95.54 60.46M95.54 60.46L96.36 57.92M96.36 57.92L97.43 55.39M97.43 55.39L98.72 52.92M98.72 52.92L100.21 50.56M100.21 50.56L101.87 48.37M101.87 48.37L103.67 46.39M103.67 46.39L105.56 44.65M105.56 44.65L107.52 43.2M107.52 43.2L109.49 42.06M109.49 42.06L111.44 41.26M111.44 41.26L113.34 40.81M113.34 40.81L115.13 40.72M115.13 40.72L116.79 40.99M116.79 40.99L118.28 41.62"
fill="none" stroke="black" stroke-width="0.5"/>
</g>
<g><path d="M177.83 319.66L187.19 314.25"
fill="none" stroke="black" stroke-width="0.5"/>
</g>
<g><path d="M586.21 581.39L692.62 519.96"
fill="none" stroke="black" stroke-width="0.5"/>
</g>
<g><path d="M107.38 353.48L479.8 568.49"
fill="none" stroke="black" stroke-width="0.5"/>
</g>
<g><path d="M714.65 489.24L714.65 476.34"
fill="none" stroke="black" stroke-width="0.5"/>
</g>
<g><path d="M107.38 292.04L187.19 245.97"
fill="none" stroke="black" stroke-width="0.5"/>
</g>
<g><path d="M85.35 322.76L85.35 335.66"
fill="none" stroke="black" stroke-width="0.5"/>
</g>
<g><path d="M688.36 443.17L692.62 445.63"
fill="none" stroke="black" stroke-width="0.5"/>
</g>
<g><path d="M645.69 418.53L651.26 421.75"
fill="none" stroke="black" stroke-width="0.5"/>
</g>
<g><path d="M586.21 568.49L692.62 507.06"
fill="none" stroke="black" stroke-width="0.5"/>
</g>
<g><path d="M262.87 284.91L346.8 333.36"
fill="none" stroke="black" stroke-width="0.5"/>
</g>
<g><path d="M166.66 313.21L187.19 325.06"
fill="none" stroke="black" stroke-width="0.5"/>
</g>
<g><path d="M617.42 484.12L546.49 525.08"
fill="none" stroke="black" stroke-width="0.5"/>
</g>
<g><path d="M107.38 366.38L479.8 581.39"
fill="none" stroke="black" stroke-width="0.5"/>
</g>
<g><path d="M166.66 313.21L187.19 301.35"
fill="none" stroke="black" stroke-width="0.5"/>
</g>
<g><path d="M264.51 272.96L346.8 320.46"
fill="none" stroke="black" stroke-width="0.5"/>
</g>
<g><path d="M163.58 297.89L165.51 297.29M165.51 297.29L167.59 296.88M167.59 296.88L169.75 296.67M169.75 296.67L171.95 296.67M171.95 296.67L174.11 296.88M174.11 296.88L176.19 297.29M176.19 297.29L178.12 297.89"
fill="none" stroke="black" stroke-width="0.5"/>
</g>
<g><path d="M645.23 454.28L647.23 454.17M647.23 454.17L649.23 454.27M649.23 454.27L651.16 454.58M651.16 454.58L652.97 455.09M652.97 455.09L654.57 455.78M654.57 455.78L655.93 456.64M655.93 456.64L656.99 457.62M656.99 457.62L657.72 458.7M657.72 458.7L658.09 459.84M658.09 459.84L658.09 461M658.09 461L657.72 462.14M657.72 462.14L656.99 463.22M656.99 463.22L655.93 464.21M655.93 464.21L654.57 465.06M654.57 465.06L652.97 465.75M652.97 465.75L651.16 466.27M651.16 466.27L649.23 466.58M649.23 466.58L647.23 466.68M647.23 466.68L645.23 466.56"
fill="none" stroke="black" stroke-width="0.5"/>
</g>
<g><path d="M692.62 507.06L696.28 504.79M696.28 504.79L699.65 502.38M699.65 502.38L702.71 499.83M702.71 499.83L705.45 497.16M705.45 497.16L707.85 494.39M707.85 494.39L709.91 491.52M709.91 491.52L711.61 488.58M711.61 488.58L712.93 485.58M712.93 485.58L713.89 482.53M713.89 482.53L714.46 479.44M714.46 479.44L714.65 476.34M714.65 476.34L714.46 473.24M714.46 473.24L713.89 470.16M713.89 470.16L712.93 467.11M712.93 467.11L711.61 464.1M711.61 464.1L709.91 461.16M709.91 461.16L707.85 458.3M707.85 458.3L705.45 455.52M705.45 455.52L702.71 452.86M702.71 452.86L699.65 450.31M699.65 450.31L696.28 447.9M696.28 447.9L692.62 445.63"
fill="none" stroke="black" stroke-width="0.5"/>
</g>
<g><path d="M714.65 489.24L714.46 492.34M714.46 492.34L713.89 495.43M713.89 495.43L712.93 498.48M712.93 498.48L711.61 501.48M711.61 501.48L709.91 504.42M709.91 504.42L707.85 507.29M707.85 507.29L705.45 510.06M705.45 510.06L702.71 512.73M702.71 512.73L699.65 515.28M699.65 515.28L696.28 517.69M696.28 517.69L692.62 519.96"
fill="none" stroke="black" stroke-width="0.5"/>
</g>
<g><path d="M107.38 292.04L103.72 294.31M103.72 294.31L100.35 296.73M100.35 296.73L97.29 299.27M97.29 299.27L94.55 301.94M94.55 301.94L92.15 304.71M92.15 304.71L90.09 307.58M90.09 307.58L88.39 310.52M88.39 310.52L87.07 313.53M87.07 313.53L86.11 316.58M86.11 316.58L85.54 319.66M85.54 319.66L85.35 322.76M85.35 322.76L85.54 325.86M85.54 325.86L86.11 328.94M86.11 328.94L87.07 331.99M87.07 331.99L88.39 335M88.39 335L90.09 337.94M90.09 337.94L92.15 340.8M92.15 340.8L94.55 343.58M94.55 343.58L97.29 346.24M97.29 346.24L100.35 348.79M100.35 348.79L103.72 351.21M103.72 351.21L107.38 353.48"
fill="none" stroke="black" stroke-width="0.5"/>
</g>
<g><path d="M459.13 427.24L460.96 427.36M460.96 427.36L462.72 427.66M462.72 427.66L464.38 428.13"
fill="none" stroke="black" stroke-width="0.5"/>
</g>
<g><path d="M479.8 568.49L483.74 570.61M483.74 570.61L487.92 572.55M487.92 572.55L492.33 574.32M492.33 574.32L496.95 575.9M496.95 575.9L501.75 577.29M501.75 577.29L506.71 578.48M506.71 578.48L511.81 579.46M511.81 579.46L517.01 580.22M517.01 580.22L522.3 580.77M522.3 580.77L527.64 581.11M527.64 581.11L533.01 581.22M533.01 581.22L538.38 581.11M538.38 581.11L543.72 580.77M543.72 580.77L549 580.22M549 580.22L554.21 579.46M554.21 579.46L559.3 578.48M559.3 578.48L564.26 577.29M564.26 577.29L569.07 575.9M569.07 575.9L573.69 574.32M573.69 574.32L578.1 572.55M578.1 572.55L582.28 570.61M582.28 570.61L586.21 568.49"
fill="none" stroke="black" stroke-width="0.5"/>
</g>
<g><path d="M184.18 291.44L183.99 292.74M183.99 292.74L183.42 294M183.42 294L182.49 295.19M182.49 295.19L181.22 296.27M181.22 296.27L179.66 297.21M179.66 297.21L177.84 297.99M177.84 297.99L175.82 298.58M175.82 298.58L173.66 298.96M173.66 298.96L171.42 299.13M171.42 299.13L169.16 299.07M169.16 299.07L166.95 298.8M166.95 298.8L164.85 298.31M164.85 298.31L162.92 297.63M162.92 297.63L161.23 296.76M161.23 296.76L159.81 295.75M159.81 295.75L158.7 294.61M158.7 294.61L157.95 293.38M157.95 293.38L157.57 292.09M157.57 292.09L157.57 290.78M157.57 290.78L157.95 289.5M157.95 289.5L158.7 288.27M158.7 288.27L159.81 287.13M159.81 287.13L161.23 286.11M161.23 286.11L162.92 285.25M162.92 285.25L164.85 284.57M164.85 284.57L166.95 284.08M166.95 284.08L169.16 283.8M169.16 283.8L171.42 283.75M171.42 283.75L173.66 283.91M173.66 283.91L175.82 284.3M175.82 284.3L177.84 284.88M177.84 284.88L179.66 285.66M179.66 285.66L181.22 286.6M181.22 286.6L182.49 287.68M182.49 287.68L183.42 288.87M183.42 288.87L183.99 290.14M183.99 290.14L184.18 291.44"
fill="none" stroke="black" stroke-width="0.5"/>
</g>
<g><path d="M586.21 581.39L582.28 583.51M582.28 583.51L578.1 585.45M578.1 585.45L573.69 587.22M573.69 587.22L569.07 588.8M569.07 588.8L564.26 590.19M564.26 590.19L559.3 591.38M559.3 591.38L554.21 592.36M554.21 592.36L549 593.12M549 593.12L543.72 593.68M543.72 593.68L538.38 594.01M538.38 594.01L533.01 594.12M533.01 594.12L527.64 594.01M527.64 594.01L522.3 593.68M522.3 593.68L517.01 593.12M517.01 593.12L511.81 592.36M511.81 592.36L506.71 591.38M506.71 591.38L501.75 590.19M501.75 590.19L496.95 588.8M496.95 588.8L492.33 587.22M492.33 587.22L487.92 585.45M487.92 585.45L483.74 583.51M483.74 583.51L479.8 581.39"
fill="none" stroke="black" stroke-width="0.5"/>
</g>
<g><path d="M107.38 366.38L103.72 364.11M103.72 364.11L100.35 361.69M100.35 361.69L97.29 359.15M97.29 359.15L94.55 356.48M94.55 356.48L92.15 353.71M92.15 353.71L90.09 350.84M90.09 350.84L88.39 347.9M88.39 347.9L87.07 344.89M87.07 344.89L86.11 341.84M86.11 341.84L85.54 338.76M85.54 338.76L85.35 335.66"
fill="none" stroke="black" stroke-width="0.5"/>
</g>
<g><path d="M503.36 536.19L505.35 536.08M505.35 536.08L507.36 536.18M507.36 536.18L509.29 536.49M509.29 536.49L511.09 537M511.09 537L512.7 537.69M512.7 537.69L514.06 538.55M514.06 538.55L515.12 539.53M515.12 539.53L515.85 540.61M515.85 540.61L516.22 541.75M516.22 541.75L516.22 542.91M516.22 542.91L515.85 544.05M515.85 544.05L515.12 545.13M515.12 545.13L514.06 546.12M514.06 546.12L512.7 546.97M512.7 546.97L511.09 547.67M511.09 547.67L509.29 548.18M509.29 548.18L507.36 548.49M507.36 548.49L505.35 548.59M505.35 548.59L503.36 548.47"
fill="none" stroke="black" stroke-width="0.5"/>
</g>
<g><path d="M649.38 452.77L649.38 422.84"
fill="none" stroke="black" stroke-width="0.5"/>
</g>
<g><path d="M656.08 412.53L660.55 415.11"
fill="none" stroke="black" stroke-width="0.5"/>
</g>
<g><path d="M635.95 432.78L645.23 438.14"
fill="none" stroke="black" stroke-width="0.5"/>
</g>
<g><path d="M507.51 534.68L507.51 504.75"
fill="none" stroke="black" stroke-width="0.5"/>
</g>
<g><path d="M516.79 499.39L507.51 504.75"
fill="none" stroke="black" stroke-width="0.5"/>
</g>
<g><path d="M507.51 534.68L518.68 541.13"
fill="none" stroke="black" stroke-width="0.5"/>
</g>
<g><path d="M516.79 499.39L527.96 505.84"
fill="none" stroke="black" stroke-width="0.5"/>
</g>
<g><path d="M507.51 504.75L518.68 511.2"
fill="none" stroke="black" stroke-width="0.5"/>
</g>
<g><path d="M514.21 494.45L518.68 497.03"
fill="none" stroke="black" stroke-width="0.5"/>
</g>
<g><path d="M494.07 514.69L503.36 520.05"
fill="none" stroke="black" stroke-width="0.5"/>
</g>
<g><path d="M464.38 504.6L464.38 559.59"
fill="none" stroke="black" stroke-width="0.5"/>
</g>
<g><path d="M464.38 559.59L475.55 566.04"
fill="none" stroke="black" stroke-width="0.5"/>
</g>
<g><path d="M645.23 468.07L617.42 484.12"
fill="none" stroke="black" stroke-width="0.5"/>
</g>
<g><path d="M645.23 468.07L645.23 438.14"
fill="none" stroke="black" stroke-width="0.5"/>
</g>
<g><path d="M494.07 525.41L494.07 511.23"
fill="none" stroke="black" stroke-width="0.5"/>
</g>
<g><path d="M635.95 443.5L635.95 429.32"
fill="none" stroke="black" stroke-width="0.5"/>
</g>
<g><path d="M645.23 423.96L645.23 418.8"
fill="none" stroke="black" stroke-width="0.5"/>
</g>
<g><path d="M660.55 409.95L645.23 418.8"
fill="none" stroke="black" stroke-width="0.5"/>
</g>
<g><path d="M660.55 415.11L660.55 409.95"
fill="none" stroke="black" stroke-width="0.5"/>
</g>
<g><path d="M649.38 422.84L660.55 429.29"
fill="none" stroke="black" stroke-width="0.5"/>
</g>
<g><path d="M669.84 423.93L660.55 429.29"
fill="none" stroke="black" stroke-width="0.5"/>
</g>
<g><path d="M486.72 473.89L475.55 480.34"
fill="none" stroke="black" stroke-width="0.5"/>
</g>
<g><path d="M645.23 438.14L635.95 443.5"
fill="none" stroke="black" stroke-width="0.5"/>
</g>
<g><path d="M635.16 192.52L635.16 179.62"
fill="none" stroke="black" stroke-width="0.5"/>
</g>
<g><path d="M599.69 213L635.16 192.52"
fill="none" stroke="black" stroke-width="0.5"/>
</g>
<g><path d="M688.36 443.17L660.55 459.22"
fill="none" stroke="black" stroke-width="0.5"/>
</g>
<g><path d="M528.75 253.95L564.22 233.48"
fill="none" stroke="black" stroke-width="0.5"/>
</g>
<g><path d="M688.36 210.34L688.36 443.17"
fill="none" stroke="black" stroke-width="0.5"/>
</g>
<g><path d="M503.36 520.05L494.07 525.41"
fill="none" stroke="black" stroke-width="0.5"/>
</g>
<g><path d="M516.79 499.39L516.79 495.94"
fill="none" stroke="black" stroke-width="0.5"/>
</g>
<g><path d="M599.69 213L599.69 200.1"
fill="none" stroke="black" stroke-width="0.5"/>
</g>
<g><path d="M528.75 253.95L528.75 241.05"
fill="none" stroke="black" stroke-width="0.5"/>
</g>
<g><path d="M669.84 423.93L669.84 409.75"
fill="none" stroke="black" stroke-width="0.5"/>
</g>
<g><path d="M593.46 186.32L582.28 179.87"
fill="none" stroke="black" stroke-width="0.5"/>
</g>
<g><path d="M658.66 417.48L649.38 422.84"
fill="none" stroke="black" stroke-width="0.5"/>
</g>
<g><path d="M660.55 459.22L660.55 429.29"
fill="none" stroke="black" stroke-width="0.5"/>
</g>
<g><path d="M645.23 423.96L635.95 429.32"
fill="none" stroke="black" stroke-width="0.5"/>
</g>
<g><path d="M658.66 417.48L669.84 423.93"
fill="none" stroke="black" stroke-width="0.5"/>
</g>
<g><path d="M564.22 233.48L564.22 220.57"
fill="none" stroke="black" stroke-width="0.5"/>
</g>
<g><path d="M546.49 525.08L518.68 541.13"
fill="none" stroke="black" stroke-width="0.5"/>
</g>
<g><path d="M669.84 409.75L660.55 415.11"
fill="none" stroke="black" stroke-width="0.5"/>
</g>
<g><path d="M503.36 505.87L503.36 500.71"
fill="none" stroke="black" stroke-width="0.5"/>
</g>
<g><path d="M518.68 541.13L518.68 511.2"
fill="none" stroke="black" stroke-width="0.5"/>
</g>
<g><path d="M658.66 417.48L658.66 414.02"
fill="none" stroke="black" stroke-width="0.5"/>
</g>
<g><path d="M475.55 511.05L475.55 566.04"
fill="none" stroke="black" stroke-width="0.5"/>
</g>
<g><path d="M527.96 505.84L518.68 511.2"
fill="none" stroke="black" stroke-width="0.5"/>
</g>
<g><path d="M464.38 504.6L475.55 511.05"
fill="none" stroke="black" stroke-width="0.5"/>
</g>
<g><path d="M475.55 333.2L475.55 480.34"
fill="none" stroke="black" stroke-width="0.5"/>
</g>
<g><path d="M527.96 505.84L527.96 491.67"
fill="none" stroke="black" stroke-width="0.5"/>
</g>
<g><path d="M503.36 549.98L475.55 566.04"
fill="none" stroke="black" stroke-width="0.5"/>
</g>
<g><path d="M518.68 497.03L518.68 491.87"
fill="none" stroke="black" stroke-width="0.5"/>
</g>
<g><path d="M527.96 491.67L518.68 497.03"
fill="none" stroke="black" stroke-width="0.5"/>
</g>
<g><path d="M486.72 473.89L486.72 504.6"
fill="none" stroke="black" stroke-width="0.5"/>
</g>
<g><path d="M517.58 234.6L528.75 241.05"
fill="none" stroke="black" stroke-width="0.5"/>
</g>
<g><path d="M635.16 179.62L623.98 173.17"
fill="none" stroke="black" stroke-width="0.5"/>
</g>
<g><path d="M518.68 491.87L503.36 500.71"
fill="none" stroke="black" stroke-width="0.5"/>
</g>
<g><path d="M503.36 505.87L494.07 511.23"
fill="none" stroke="black" stroke-width="0.5"/>
</g>
<g><path d="M649.38 452.77L660.55 459.22"
fill="none" stroke="black" stroke-width="0.5"/>
</g>
<g><path d="M503.36 549.98L503.36 520.05"
fill="none" stroke="black" stroke-width="0.5"/>
</g>
<g><path d="M486.72 504.6L475.55 511.05"
fill="none" stroke="black" stroke-width="0.5"/>
</g>
<g><path d="M464.38 473.89L475.55 480.34"
fill="none" stroke="black" stroke-width="0.5"/>
</g>
<g><path d="M464.38 326.75L464.38 473.89"
fill="none" stroke="black" stroke-width="0.5"/>
</g>
<g><path d="M581.95 186.11L570.78 179.66"
fill="none" stroke="black" stroke-width="0.5"/>
</g>
<g><path d="M672.78 175.89L661.61 169.44"
fill="none" stroke="black" stroke-width="0.5"/>
</g>
<g><path d="M651.65 285.59L650.91 287.01M650.91 287.01L650.05 288.36"
fill="none" stroke="black" stroke-width="0.5"/>
</g>
<g><path d="M623.98 173.17L627.78 171.13M627.78 171.13L631.56 169.42M631.56 169.42L635.29 168.04M635.29 168.04L638.97 167M638.97 167L642.58 166.31M642.58 166.31L646.09 165.96M646.09 165.96L649.48 165.96M649.48 165.96L652.75 166.31M652.75 166.31L655.87 167.01M655.87 167.01L658.83 168.06M658.83 168.06L661.61 169.44"
fill="none" stroke="black" stroke-width="0.5"/>
</g>
<g><path d="M553.05 214.12L553.17 211.4M553.17 211.4L553.54 208.57M553.54 208.57L554.15 205.67M554.15 205.67L555 202.71M555 202.71L556.07 199.75M556.07 199.75L557.36 196.81M557.36 196.81L558.84 193.93M558.84 193.93L560.5 191.14M560.5 191.14L562.33 188.48M562.33 188.48L564.29 185.97M564.29 185.97L566.37 183.64M566.37 183.64L568.54 181.53M568.54 181.53L570.78 179.66"
fill="none" stroke="black" stroke-width="0.5"/>
</g>
<g><path d="M464.38 326.75L464.51 322.29M464.51 322.29L464.92 317.7M464.92 317.7L465.59 312.99M465.59 312.99L466.53 308.2M466.53 308.2L467.73 303.35M467.73 303.35L469.18 298.46M469.18 298.46L470.88 293.55M470.88 293.55L472.82 288.66M472.82 288.66L474.99 283.81M474.99 283.81L477.37 279.02M477.37 279.02L479.96 274.32M479.96 274.32L482.74 269.72M482.74 269.72L485.7 265.26M485.7 265.26L488.82 260.96M488.82 260.96L492.08 256.84M492.08 256.84L495.48 252.91M495.48 252.91L498.99 249.21M498.99 249.21L502.59 245.74M502.59 245.74L506.27 242.53M506.27 242.53L510.01 239.6M510.01 239.6L513.78 236.95M513.78 236.95L517.58 234.6"
fill="none" stroke="black" stroke-width="0.5"/>
</g>
<g><path d="M501.83 385.98L500.89 385.22M500.89 385.22L500.17 384.14M500.17 384.14L499.7 382.8M499.7 382.8L499.5 381.23M499.5 381.23L499.57 379.5M499.57 379.5L499.9 377.65M499.9 377.65L500.5 375.75M500.5 375.75L501.33 373.86M501.33 373.86L502.37 372.06M502.37 372.06L503.59 370.4M503.59 370.4L504.93 368.93M504.93 368.93L506.37 367.72M506.37 367.72L507.84 366.79M507.84 366.79L509.3 366.18M509.3 366.18L510.69 365.92M510.69 365.92L511.98 366M511.98 366L513.11 366.43M513.11 366.43L514.05 367.2M514.05 367.2L514.77 368.27M514.77 368.27L515.24 369.61M515.24 369.61L515.44 371.18M515.44 371.18L515.37 372.92M515.37 372.92L515.04 374.77M515.04 374.77L514.44 376.66M514.44 376.66L513.61 378.55M513.61 378.55L512.57 380.35M512.57 380.35L511.35 382.01M511.35 382.01L510.01 383.48M510.01 383.48L508.57 384.7M508.57 384.7L507.1 385.62M507.1 385.62L505.64 386.23M505.64 386.23L504.25 386.5M504.25 386.5L502.96 386.41M502.96 386.41L501.83 385.98"
fill="none" stroke="black" stroke-width="0.5"/>
</g>
<g><path d="M587.37 207.4L586.25 206.98M586.25 206.98L584.97 206.91M584.97 206.91L583.58 207.2M583.58 207.2L582.14 207.84M582.14 207.84L580.68 208.8M580.68 208.8L579.28 210.04M579.28 210.04L577.97 211.53M577.97 211.53L576.8 213.22M576.8 213.22L575.82 215.03M575.82 215.03L575.06 216.9M575.06 216.9L574.55 218.77M574.55 218.77L574.31 220.57M574.31 220.57L574.35 222.23M574.35 222.23L574.66 223.69M574.66 223.69L575.23 224.91M575.23 224.91L576.05 225.83M576.05 225.83L577.08 226.42M577.08 226.42L578.28 226.67M578.28 226.67L579.62 226.56M579.62 226.56L581.04 226.09M581.04 226.09L582.5 225.29M582.5 225.29L583.94 224.19M583.94 224.19L585.3 222.81M585.3 222.81L586.55 221.22M586.55 221.22L587.62 219.46M587.62 219.46L588.5 217.61M588.5 217.61L589.13 215.73M589.13 215.73L589.51 213.89M589.51 213.89L589.61 212.15M589.61 212.15L589.44 210.58M589.44 210.58L589 209.24M589 209.24L588.3 208.16M588.3 208.16L587.37 207.4"
fill="none" stroke="black" stroke-width="0.5"/>
</g>
<g><path d="M650.8 299.97L649.85 299.21M649.85 299.21L649.14 298.14M649.14 298.14L648.67 296.79M648.67 296.79L648.47 295.23M648.47 295.23L648.53 293.49M648.53 293.49L648.87 291.64M648.87 291.64L649.47 289.74M649.47 289.74L650.3 287.86M650.3 287.86L651.34 286.05M651.34 286.05L652.56 284.39M652.56 284.39L653.9 282.93M653.9 282.93L655.34 281.71M655.34 281.71L656.81 280.78M656.81 280.78L658.27 280.17M658.27 280.17L659.66 279.91M659.66 279.91L660.95 279.99M660.95 279.99L662.08 280.43M662.08 280.43L663.02 281.19M663.02 281.19L663.74 282.26M663.74 282.26L664.21 283.6M664.21 283.6L664.41 285.17M664.41 285.17L664.34 286.91M664.34 286.91L664.01 288.76M664.01 288.76L663.41 290.66M663.41 290.66L662.58 292.54M662.58 292.54L661.54 294.35M661.54 294.35L660.32 296.01M660.32 296.01L658.97 297.47M658.97 297.47L657.54 298.69M657.54 298.69L656.07 299.62M656.07 299.62L654.61 300.22M654.61 300.22L653.22 300.49M653.22 300.49L651.93 300.41M651.93 300.41L650.8 299.97"
fill="none" stroke="black" stroke-width="0.5"/>
</g>
<g><path d="M502.68 371.6L501.94 373.01M501.94 373.01L501.09 374.36"
fill="none" stroke="black" stroke-width="0.5"/>
</g>
<g><path d="M570.78 179.66L572.92 178.97M572.92 178.97L575 178.57M575 178.57L576.99 178.46M576.99 178.46L578.89 178.64M578.89 178.64L580.66 179.11M580.66 179.11L582.28 179.87"
fill="none" stroke="black" stroke-width="0.5"/>
</g>
<g><path d="M688.36 210.34L688.22 206.03M688.22 206.03L687.82 201.91M687.82 201.91L687.14 197.98M687.14 197.98L686.21 194.27M686.21 194.27L685.01 190.8M685.01 190.8L683.55 187.59M683.55 187.59L681.85 184.65M681.85 184.65L679.91 182M679.91 182L677.75 179.65M677.75 179.65L675.37 177.61M675.37 177.61L672.78 175.89M672.78 175.89L670 174.51M670 174.51L667.04 173.46M667.04 173.46L663.92 172.76M663.92 172.76L660.65 172.41M660.65 172.41L657.26 172.41M657.26 172.41L653.75 172.76M653.75 172.76L650.15 173.45M650.15 173.45L646.47 174.49M646.47 174.49L642.73 175.87M642.73 175.87L638.95 177.58M638.95 177.58L635.16 179.62"
fill="none" stroke="black" stroke-width="0.5"/>
</g>
<g><path d="M599.69 200.1L599.56 197.52M599.56 197.52L599.19 195.12M599.19 195.12L598.58 192.92M598.58 192.92L597.74 190.94M597.74 190.94L596.66 189.21M596.66 189.21L595.38 187.76M595.38 187.76L593.9 186.59M593.9 186.59L592.23 185.72M592.23 185.72L590.41 185.16M590.41 185.16L588.45 184.92M588.45 184.92L586.37 185M586.37 185L584.19 185.39M584.19 185.39L581.95 186.11"
fill="none" stroke="black" stroke-width="0.5"/>
</g>
<g><path d="M581.95 186.11L579.71 187.98M579.71 187.98L577.54 190.09M577.54 190.09L575.46 192.42M575.46 192.42L573.5 194.93M573.5 194.93L571.67 197.59M571.67 197.59L570.01 200.38M570.01 200.38L568.53 203.26M568.53 203.26L567.25 206.2M567.25 206.2L566.17 209.16M566.17 209.16L565.33 212.12M565.33 212.12L564.71 215.02M564.71 215.02L564.34 217.86M564.34 217.86L564.22 220.57"
fill="none" stroke="black" stroke-width="0.5"/>
</g>
<g><path d="M528.75 241.05L524.96 243.4M524.96 243.4L521.18 246.05M521.18 246.05L517.44 248.99M517.44 248.99L513.76 252.19M513.76 252.19L510.16 255.66M510.16 255.66L506.65 259.36M506.65 259.36L503.25 263.29M503.25 263.29L499.99 267.41M499.99 267.41L496.87 271.71M496.87 271.71L493.91 276.17M493.91 276.17L491.13 280.77M491.13 280.77L488.54 285.47M488.54 285.47L486.16 290.26M486.16 290.26L483.99 295.11M483.99 295.11L482.06 300M482.06 300L480.36 304.91M480.36 304.91L478.9 309.8M478.9 309.8L477.7 314.65M477.7 314.65L476.76 319.44M476.76 319.44L476.09 324.15M476.09 324.15L475.68 328.74M475.68 328.74L475.55 333.2"
fill="none" stroke="black" stroke-width="0.5"/>
</g>
<g><path d="M335.49 313.93L335.49 249.14"
fill="none" stroke="black" stroke-width="0.5"/>
</g>
<g><path d="M335.49 313.93L346.66 320.38"
fill="none" stroke="black" stroke-width="0.5"/>
</g>
<g><path d="M187.19 399.55L187.19 344.57"
fill="none" stroke="black" stroke-width="0.5"/>
</g>
<g><path d="M187.19 399.55L198.36 406"
fill="none" stroke="black" stroke-width="0.5"/>
</g>
<g><path d="M357.97 19.58L346.8 13.13"
fill="none" stroke="black" stroke-width="0.5"/>
</g>
<g><path d="M187.19 344.57L198.36 351.02"
fill="none" stroke="black" stroke-width="0.5"/>
</g>
<g><path d="M395.59 15.86L384.42 9.41"
fill="none" stroke="black" stroke-width="0.5"/>
</g>
<g><path d="M316.27 26.28L305.1 19.83"
fill="none" stroke="black" stroke-width="0.5"/>
</g>
<g><path d="M304.77 26.07L293.59 19.62"
fill="none" stroke="black" stroke-width="0.5"/>
</g>
<g><path d="M187.19 313.85L198.36 320.3"
fill="none" stroke="black" stroke-width="0.5"/>
</g>
<g><path d="M240.39 74.57L251.56 81.02"
fill="none" stroke="black" stroke-width="0.5"/>
</g>
<g><path d="M198.36 406L198.36 351.02"
fill="none" stroke="black" stroke-width="0.5"/>
</g>
<g><path d="M219.38 393.87L198.36 406"
fill="none" stroke="black" stroke-width="0.5"/>
</g>
<g><path d="M262.87 313.93L262.87 283.36"
fill="none" stroke="black" stroke-width="0.5"/>
</g>
<g><path d="M307.88 232.8L284.16 246.5"
fill="none" stroke="black" stroke-width="0.5"/>
</g>
<g><path d="M187.19 313.85L187.19 166.72"
fill="none" stroke="black" stroke-width="0.5"/>
</g>
<g><path d="M346.66 320.38L346.66 255.75"
fill="none" stroke="black" stroke-width="0.5"/>
</g>
<g><path d="M346.8 320.3L346.66 320.38"
fill="none" stroke="black" stroke-width="0.5"/>
</g>
<g><path d="M251.56 81.02L251.56 93.92"
fill="none" stroke="black" stroke-width="0.5"/>
</g>
<g><path d="M198.36 320.3L198.36 173.17"
fill="none" stroke="black" stroke-width="0.5"/>
</g>
<g><path d="M346.8 13.13L350.59 11.1M350.59 11.1L354.37 9.39M354.37 9.39L358.11 8.01M358.11 8.01L361.79 6.97M361.79 6.97L365.39 6.27M365.39 6.27L368.9 5.93M368.9 5.93L372.29 5.93M372.29 5.93L375.56 6.28M375.56 6.28L378.68 6.98M378.68 6.98L381.64 8.02M381.64 8.02L384.42 9.41"
fill="none" stroke="black" stroke-width="0.5"/>
</g>
<g><path d="M276.14 214.02L273.87 213.78"
fill="none" stroke="black" stroke-width="0.5"/>
</g>
<g><path d="M225.49 211.56L224.75 212.98M224.75 212.98L223.9 214.33"
fill="none" stroke="black" stroke-width="0.5"/>
</g>
<g><path d="M275.86 54.09L275.98 51.37M275.98 51.37L276.35 48.54M276.35 48.54L276.97 45.63M276.97 45.63L277.81 42.68M277.81 42.68L278.88 39.71M278.88 39.71L280.17 36.77M280.17 36.77L281.65 33.89M281.65 33.89L283.31 31.1M283.31 31.1L285.14 28.44M285.14 28.44L287.1 25.93M287.1 25.93L289.18 23.61M289.18 23.61L291.35 21.5M291.35 21.5L293.59 19.62"
fill="none" stroke="black" stroke-width="0.5"/>
</g>
<g><path d="M187.19 166.72L187.32 162.26M187.32 162.26L187.73 157.66M187.73 157.66L188.4 152.96M188.4 152.96L189.34 148.17M189.34 148.17L190.54 143.31M190.54 143.31L192 138.42M192 138.42L193.7 133.52M193.7 133.52L195.63 128.63M195.63 128.63L197.8 123.78M197.8 123.78L200.18 118.98M200.18 118.98L202.77 114.28M202.77 114.28L205.55 109.69M205.55 109.69L208.51 105.23M208.51 105.23L211.63 100.93M211.63 100.93L214.89 96.8M214.89 96.8L218.29 92.88M218.29 92.88L221.8 89.18M221.8 89.18L225.4 85.71M225.4 85.71L229.08 82.5M229.08 82.5L232.82 79.56M232.82 79.56L236.6 76.92M236.6 76.92L240.39 74.57"
fill="none" stroke="black" stroke-width="0.5"/>
</g>
<g><path d="M293.59 19.62L295.73 18.94M295.73 18.94L297.81 18.54M297.81 18.54L299.81 18.43M299.81 18.43L301.7 18.61M301.7 18.61L303.47 19.08M303.47 19.08L305.1 19.83"
fill="none" stroke="black" stroke-width="0.5"/>
</g>
<g><path d="M262.87 283.36L263.01 280.53M263.01 280.53L263.41 277.59M263.41 277.59L264.07 274.56M264.07 274.56L264.98 271.48M264.98 271.48L266.14 268.4M266.14 268.4L267.52 265.36M267.52 265.36L269.11 262.39M269.11 262.39L270.89 259.52M270.89 259.52L272.83 256.8M272.83 256.8L274.92 254.27M274.92 254.27L277.13 251.94M277.13 251.94L279.42 249.85M279.42 249.85L281.77 248.03M281.77 248.03L284.16 246.5"
fill="none" stroke="black" stroke-width="0.5"/>
</g>
<g><path d="M411.17 50.3L411.04 46M411.04 46L410.63 41.87M410.63 41.87L409.96 37.94M409.96 37.94L409.02 34.24M409.02 34.24L407.82 30.77M407.82 30.77L406.36 27.56M406.36 27.56L404.66 24.62M404.66 24.62L402.73 21.96M402.73 21.96L400.56 19.61M400.56 19.61L398.18 17.57M398.18 17.57L395.59 15.86M395.59 15.86L392.81 14.47M392.81 14.47L389.85 13.43M389.85 13.43L386.73 12.73M386.73 12.73L383.47 12.38M383.47 12.38L380.07 12.38M380.07 12.38L376.56 12.72M376.56 12.72L372.96 13.42M372.96 13.42L369.28 14.46M369.28 14.46L365.54 15.84M365.54 15.84L361.77 17.55M361.77 17.55L357.97 19.58"
fill="none" stroke="black" stroke-width="0.5"/>
</g>
<g><path d="M322.5 40.06L322.38 37.49M322.38 37.49L322.01 35.08M322.01 35.08L321.39 32.88M321.39 32.88L320.55 30.91M320.55 30.91L319.48 29.18M319.48 29.18L318.19 27.72M318.19 27.72L316.71 26.55M316.71 26.55L315.05 25.69M315.05 25.69L313.22 25.13M313.22 25.13L311.26 24.89M311.26 24.89L309.18 24.96M309.18 24.96L307.01 25.36M307.01 25.36L304.77 26.07"
fill="none" stroke="black" stroke-width="0.5"/>
</g>
<g><path d="M251.56 81.02L247.77 83.37M247.77 83.37L243.99 86.01M243.99 86.01L240.25 88.95M240.25 88.95L236.57 92.16M236.57 92.16L232.97 95.63M232.97 95.63L229.46 99.33M229.46 99.33L226.07 103.25M226.07 103.25L222.8 107.38M222.8 107.38L219.68 111.68M219.68 111.68L216.72 116.14M216.72 116.14L213.94 120.73M213.94 120.73L211.36 125.44M211.36 125.44L208.97 130.23M208.97 130.23L206.81 135.08M206.81 135.08L204.87 139.97M204.87 139.97L203.17 144.87M203.17 144.87L201.71 149.76M201.71 149.76L200.52 154.62M200.52 154.62L199.58 159.41M199.58 159.41L198.9 164.11M198.9 164.11L198.5 168.71M198.5 168.71L198.36 173.17"
fill="none" stroke="black" stroke-width="0.5"/>
</g>
<g><path d="M304.77 26.07L302.53 27.95M302.53 27.95L300.35 30.06M300.35 30.06L298.27 32.38M298.27 32.38L296.31 34.89M296.31 34.89L294.49 37.56M294.49 37.56L292.82 40.34M292.82 40.34L291.34 43.23M291.34 43.23L290.06 46.16M290.06 46.16L288.99 49.13M288.99 49.13L288.14 52.08M288.14 52.08L287.53 54.99M287.53 54.99L287.16 57.82M287.16 57.82L287.03 60.54"
fill="none" stroke="black" stroke-width="0.5"/>
</g>
<g><path d="M224.64 225.95L223.7 225.18M223.7 225.18L222.98 224.11M222.98 224.11L222.51 222.77M222.51 222.77L222.31 221.2M222.31 221.2L222.38 219.46M222.38 219.46L222.72 217.61M222.72 217.61L223.31 215.71M223.31 215.71L224.14 213.83M224.14 213.83L225.18 212.03M225.18 212.03L226.4 210.36M226.4 210.36L227.75 208.9M227.75 208.9L229.18 207.68M229.18 207.68L230.65 206.75M230.65 206.75L232.11 206.15M232.11 206.15L233.51 205.88M233.51 205.88L234.79 205.97M234.79 205.97L235.93 206.4M235.93 206.4L236.87 207.16M236.87 207.16L237.58 208.23M237.58 208.23L238.05 209.58M238.05 209.58L238.25 211.14M238.25 211.14L238.19 212.88M238.19 212.88L237.85 214.73M237.85 214.73L237.25 216.63M237.25 216.63L236.42 218.51M236.42 218.51L235.38 220.32M235.38 220.32L234.17 221.98M234.17 221.98L232.82 223.44M232.82 223.44L231.38 224.66M231.38 224.66L229.91 225.59M229.91 225.59L228.46 226.2M228.46 226.2L227.06 226.46M227.06 226.46L225.77 226.38M225.77 226.38L224.64 225.95"
fill="none" stroke="black" stroke-width="0.5"/>
</g>
<g><path d="M298.41 55.48L299.31 53.69M299.31 53.69L300.4 52.01M300.4 52.01L301.63 50.49M301.63 50.49L302.98 49.18M302.98 49.18L304.38 48.14M304.38 48.14L305.8 47.39M305.8 47.39L307.19 46.96M307.19 46.96L308.49 46.87M308.49 46.87L309.66 47.12M309.66 47.12L310.66 47.7M310.66 47.7L311.46 48.59M311.46 48.59L312.04 49.76M312.04 49.76L312.36 51.17M312.36 51.17L312.42 52.78M312.42 52.78L312.22 54.52M312.22 54.52L311.76 56.33M311.76 56.33L311.06 58.16M311.06 58.16L310.15 59.95M310.15 59.95L309.05 61.62"
fill="none" stroke="black" stroke-width="0.5"/>
</g>
<g><path d="M287.01 220.45L284.28 220.1M284.28 220.1L281.71 219.38M281.71 219.38L279.31 218.32M279.31 218.32L277.1 216.91M277.1 216.91L275.11 215.17M275.11 215.17L273.34 213.11M273.34 213.11L271.82 210.74M271.82 210.74L270.54 208.08M270.54 208.08L269.53 205.16M269.53 205.16L268.78 202M268.78 202L268.31 198.61M268.31 198.61L268.11 195.03M268.11 195.03L268.2 191.29M268.2 191.29L268.57 187.4M268.57 187.4L269.21 183.41M269.21 183.41L270.12 179.34M270.12 179.34L271.3 175.22M271.3 175.22L272.73 171.09M272.73 171.09L274.41 166.97M274.41 166.97L276.32 162.9M276.32 162.9L278.44 158.91M278.44 158.91L280.77 155.03M280.77 155.03L283.28 151.28M283.28 151.28L285.95 147.7M285.95 147.7L288.77 144.32M288.77 144.32L291.71 141.16M291.71 141.16L294.75 138.24M294.75 138.24L297.86 135.58M297.86 135.58L301.03 133.22M301.03 133.22L304.23 131.16M304.23 131.16L307.43 129.42M307.43 129.42L310.61 128.01"
fill="none" stroke="black" stroke-width="0.5"/>
</g>
<g><path d="M464.38 393.88L460.86 395.91"
fill="none" stroke="black" stroke-width="0.5"/>
</g>
<g><path d="M460.86 425.84L460.86 395.91"
fill="none" stroke="black" stroke-width="0.5"/>
</g>
<g><path d="M460.86 425.84L464.38 427.87"
fill="none" stroke="black" stroke-width="0.5"/>
</g>
<g><path d="M447.43 405.85L456.71 411.21"
fill="none" stroke="black" stroke-width="0.5"/>
</g>
<g><path d="M346.8 467.44L346.8 491.7"
fill="none" stroke="black" stroke-width="0.5"/>
</g>
<g><path d="M346.8 491.7L357.97 498.15"
fill="none" stroke="black" stroke-width="0.5"/>
</g>
<g><path d="M486.9 116.55L506.41 105.28"
fill="none" stroke="black" stroke-width="0.5"/>
</g>
<g><path d="M498.07 123L486.9 116.55"
fill="none" stroke="black" stroke-width="0.5"/>
</g>
<g><path d="M400 166.72L419.51 155.45"
fill="none" stroke="black" stroke-width="0.5"/>
</g>
<g><path d="M419.51 155.45L430.68 161.91"
fill="none" stroke="black" stroke-width="0.5"/>
</g>
<g><path d="M555.2 108.01L544.03 101.56"
fill="none" stroke="black" stroke-width="0.5"/>
</g>
<g><path d="M357.97 473.89L357.97 498.15"
fill="none" stroke="black" stroke-width="0.5"/>
</g>
<g><path d="M378.98 486.02L357.97 498.15"
fill="none" stroke="black" stroke-width="0.5"/>
</g>
<g><path d="M456.71 425.84L456.71 411.21"
fill="none" stroke="black" stroke-width="0.5"/>
</g>
<g><path d="M456.71 411.21L447.43 416.57"
fill="none" stroke="black" stroke-width="0.5"/>
</g>
<g><path d="M407.34 390.46L398.06 385.1"
fill="none" stroke="black" stroke-width="0.5"/>
</g>
<g><path d="M447.43 416.57L447.43 402.39"
fill="none" stroke="black" stroke-width="0.5"/>
</g>
<g><path d="M456.71 397.03L447.43 402.39"
fill="none" stroke="black" stroke-width="0.5"/>
</g>
<g><path d="M346.8 467.44L357.97 473.89"
fill="none" stroke="black" stroke-width="0.5"/>
</g>
<g><path d="M456.71 397.03L456.71 391.87"
fill="none" stroke="black" stroke-width="0.5"/>
</g>
<g><path d="M464.38 387.45L456.71 391.87"
fill="none" stroke="black" stroke-width="0.5"/>
</g>
<g><path d="M447.43 209.24L449.37 208.12"
fill="none" stroke="black" stroke-width="0.5"/>
</g>
<g><path d="M447.43 209.24L447.43 207"
fill="none" stroke="black" stroke-width="0.5"/>
</g>
<g><path d="M346.8 258.87L346.8 375.28"
fill="none" stroke="black" stroke-width="0.5"/>
</g>
<g><path d="M411.17 173.17L430.68 161.91"
fill="none" stroke="black" stroke-width="0.5"/>
</g>
<g><path d="M357.97 265.32L357.97 381.74"
fill="none" stroke="black" stroke-width="0.5"/>
</g>
<g><path d="M357.97 381.74L369.14 375.28"
fill="none" stroke="black" stroke-width="0.5"/>
</g>
<g><path d="M460.86 395.91L464.38 397.94"
fill="none" stroke="black" stroke-width="0.5"/>
</g>
<g><path d="M346.8 375.28L357.97 381.74"
fill="none" stroke="black" stroke-width="0.5"/>
</g>
<g><path d="M395.07 390.25L395.07 386.83"
fill="none" stroke="black" stroke-width="0.5"/>
</g>
<g><path d="M407.34 379.74L395.07 386.83"
fill="none" stroke="black" stroke-width="0.5"/>
</g>
<g><path d="M400.64 393.47L400.64 386.59"
fill="none" stroke="black" stroke-width="0.5"/>
</g>
<g><path d="M407.34 390.46L407.34 379.74"
fill="none" stroke="black" stroke-width="0.5"/>
</g>
<g><path d="M411.81 387.88L407.34 390.46"
fill="none" stroke="black" stroke-width="0.5"/>
</g>
<g><path d="M498.07 123L517.58 111.73"
fill="none" stroke="black" stroke-width="0.5"/>
</g>
<g><path d="M411.81 399.92L411.81 387.88"
fill="none" stroke="black" stroke-width="0.5"/>
</g>
<g><path d="M433.7 307.27L432.79 307.13"
fill="none" stroke="black" stroke-width="0.5"/>
</g>
<g><path d="M385.1 303.71L384.36 305.13M384.36 305.13L383.51 306.48"
fill="none" stroke="black" stroke-width="0.5"/>
</g>
<g><path d="M346.8 258.87L346.93 254.41M346.93 254.41L347.34 249.81M347.34 249.81L348.01 245.11M348.01 245.11L348.95 240.32M348.95 240.32L350.15 235.46M350.15 235.46L351.6 230.57M351.6 230.57L353.3 225.67M353.3 225.67L355.24 220.78M355.24 220.78L357.41 215.93M357.41 215.93L359.79 211.13M359.79 211.13L362.38 206.43M362.38 206.43L365.16 201.84M365.16 201.84L368.12 197.38M368.12 197.38L371.24 193.08M371.24 193.08L374.5 188.95M374.5 188.95L377.9 185.03M377.9 185.03L381.41 181.33M381.41 181.33L385.01 177.86M385.01 177.86L388.69 174.65M388.69 174.65L392.43 171.71M392.43 171.71L396.2 169.07M396.2 169.07L400 166.72"
fill="none" stroke="black" stroke-width="0.5"/>
</g>
<g><path d="M384.25 318.1L383.31 317.33M383.31 317.33L382.59 316.26M382.59 316.26L382.12 314.92M382.12 314.92L381.92 313.35M381.92 313.35L381.99 311.61M381.99 311.61L382.32 309.76M382.32 309.76L382.92 307.86M382.92 307.86L383.75 305.98M383.75 305.98L384.79 304.18M384.79 304.18L386.01 302.51M386.01 302.51L387.36 301.05M387.36 301.05L388.79 299.83M388.79 299.83L390.26 298.9M390.26 298.9L391.72 298.3M391.72 298.3L393.11 298.03M393.11 298.03L394.4 298.12M394.4 298.12L395.53 298.55M395.53 298.55L396.48 299.31M396.48 299.31L397.19 300.38M397.19 300.38L397.66 301.73M397.66 301.73L397.86 303.29M397.86 303.29L397.8 305.03M397.8 305.03L397.46 306.88M397.46 306.88L396.86 308.78M396.86 308.78L396.03 310.66M396.03 310.66L394.99 312.47M394.99 312.47L393.77 314.13M393.77 314.13L392.43 315.6M392.43 315.6L390.99 316.81M390.99 316.81L389.52 317.74M389.52 317.74L388.06 318.35M388.06 318.35L386.67 318.61M386.67 318.61L385.38 318.53M385.38 318.53L384.25 318.1"
fill="none" stroke="black" stroke-width="0.5"/>
</g>
<g><path d="M444.52 313.67L441.89 313.12M441.89 313.12L439.42 312.22M439.42 312.22L437.13 310.99M437.13 310.99L435.03 309.43M435.03 309.43L433.14 307.55M433.14 307.55L431.48 305.38M431.48 305.38L430.06 302.91M430.06 302.91L428.88 300.17M428.88 300.17L427.95 297.19M427.95 297.19L427.29 293.97M427.29 293.97L426.89 290.55M426.89 290.55L426.76 286.95M426.76 286.95L426.9 283.19M426.9 283.19L427.31 279.31M427.31 279.31L427.99 275.32M427.99 275.32L428.93 271.27M428.93 271.27L430.12 267.17M430.12 267.17L431.55 263.05M431.55 263.05L433.23 258.96M433.23 258.96L435.12 254.91M435.12 254.91L437.23 250.93M437.23 250.93L439.53 247.06M439.53 247.06L442.01 243.32M442.01 243.32L444.65 239.73M444.65 239.73L447.43 236.33M447.43 236.33L450.33 233.14M450.33 233.14L453.33 230.18M453.33 230.18L456.41 227.47M456.41 227.47L459.55 225.03M459.55 225.03L462.73 222.88M462.73 222.88L465.91 221.03M465.91 221.03L469.09 219.51"
fill="none" stroke="black" stroke-width="0.5"/>
</g>
<g><path d="M570.78 142.45L570.65 138.15M570.65 138.15L570.24 134.02M570.24 134.02L569.57 130.09M569.57 130.09L568.63 126.39M568.63 126.39L567.43 122.92M567.43 122.92L565.97 119.71M565.97 119.71L564.27 116.77M564.27 116.77L562.34 114.11M562.34 114.11L560.17 111.76M560.17 111.76L557.79 109.72M557.79 109.72L555.2 108.01M555.2 108.01L552.42 106.62M552.42 106.62L549.46 105.58M549.46 105.58L546.34 104.88M546.34 104.88L543.08 104.53M543.08 104.53L539.68 104.53M539.68 104.53L536.17 104.87M536.17 104.87L532.57 105.57M532.57 105.57L528.89 106.61M528.89 106.61L525.15 107.99M525.15 107.99L521.37 109.7M521.37 109.7L517.58 111.73"
fill="none" stroke="black" stroke-width="0.5"/>
</g>
<g><path d="M506.41 105.28L510.2 103.25M510.2 103.25L513.98 101.54M513.98 101.54L517.72 100.16M517.72 100.16L521.4 99.12M521.4 99.12L525 98.42M525 98.42L528.51 98.08M528.51 98.08L531.9 98.08M531.9 98.08L535.17 98.43M535.17 98.43L538.29 99.13M538.29 99.13L541.25 100.17M541.25 100.17L544.03 101.56"
fill="none" stroke="black" stroke-width="0.5"/>
</g>
<g><path d="M411.17 173.17L407.38 175.52M407.38 175.52L403.6 178.16M403.6 178.16L399.86 181.1M399.86 181.1L396.18 184.31M396.18 184.31L392.58 187.78M392.58 187.78L389.07 191.48M389.07 191.48L385.68 195.4M385.68 195.4L382.41 199.53M382.41 199.53L379.29 203.83M379.29 203.83L376.33 208.29M376.33 208.29L373.55 212.88M373.55 212.88L370.96 217.59M370.96 217.59L368.58 222.38M368.58 222.38L366.42 227.23M366.42 227.23L364.48 232.12M364.48 232.12L362.78 237.02M362.78 237.02L361.32 241.91M361.32 241.91L360.12 246.77M360.12 246.77L359.19 251.56M359.19 251.56L358.51 256.26M358.51 256.26L358.11 260.86M358.11 260.86L357.97 265.32"
fill="none" stroke="black" stroke-width="0.5"/>
</g>
<g><path d="M486.72 473.89L486.72 504.6"
fill="none" stroke="black" stroke-width="0.5"/>
</g>
<g><path d="M486.72 504.6L475.55 511.05"
fill="none" stroke="black" stroke-width="0.5"/>
</g>
<g><path d="M486.72 473.89L475.55 480.34"
fill="none" stroke="black" stroke-width="0.5"/>
</g>
<g><path d="M369.14 375.28L464.38 430.27"
fill="none" stroke="black" stroke-width="0.5"/>
</g>
<g><path d="M209.53 283.13L346.8 362.38"
fill="none" stroke="black" stroke-width="0.5"/>
</g>
<g><path d="M209.53 283.13L198.36 289.58"
fill="none" stroke="black" stroke-width="0.5"/>
</g>
<g><path d="M464.38 504.6L464.38 535.32"
fill="none" stroke="black" stroke-width="0.5"/>
</g>
<g><path d="M464.38 504.6L475.55 511.05"
fill="none" stroke="black" stroke-width="0.5"/>
</g>
<g><path d="M475.55 480.34L475.55 511.05"
fill="none" stroke="black" stroke-width="0.5"/>
</g>
<g><path d="M464.38 473.89L475.55 480.34"
fill="none" stroke="black" stroke-width="0.5"/>
</g>
<g><path d="M464.38 443.17L464.38 473.89"
fill="none" stroke="black" stroke-width="0.5"/>
</g>
<g><path d="M198.36 289.58L464.38 443.17"
fill="none" stroke="black" stroke-width="0.5"/>
</g>
<g><path d="M198.36 320.3L198.36 289.58"
fill="none" stroke="black" stroke-width="0.5"/>
</g>
<g><path d="M187.19 313.85L198.36 320.3"
fill="none" stroke="black" stroke-width="0.5"/>
</g>
<g><path d="M187.19 344.57L187.19 313.85"
fill="none" stroke="black" stroke-width="0.5"/>
</g>
<g><path d="M187.19 344.57L198.36 351.02"
fill="none" stroke="black" stroke-width="0.5"/>
</g>
<g><path d="M198.36 381.74L198.36 351.02"
fill="none" stroke="black" stroke-width="0.5"/>
</g>
<g><path d="M198.36 381.74L464.38 535.32"
fill="none" stroke="black" stroke-width="0.5"/>
</g>
<g><path d="M357.8 433.97L358.73 433.21M358.73 433.21L359.43 432.13M359.43 432.13L359.87 430.79M359.87 430.79L360.04 429.22M360.04 429.22L359.94 427.48M359.94 427.48L359.56 425.64M359.56 425.64L358.93 423.76M358.93 423.76L358.05 421.91M358.05 421.91L356.97 420.15M356.97 420.15L355.73 418.56M355.73 418.56L354.37 417.18M354.37 417.18L352.93 416.08M352.93 416.08L351.47 415.28M351.47 415.28L350.05 414.81M350.05 414.81L348.71 414.7M348.71 414.7L347.51 414.95M347.51 414.95L346.48 415.54M346.48 415.54L345.66 416.46M345.66 416.46L345.09 417.68M345.09 417.68L344.78 419.14M344.78 419.14L344.74 420.8M344.74 420.8L344.98 422.6M344.98 422.6L345.49 424.47M345.49 424.47L346.25 426.35M346.25 426.35L347.23 428.16M347.23 428.16L348.4 429.84M348.4 429.84L349.71 431.33M349.71 431.33L351.11 432.58M351.11 432.58L352.57 433.53M352.57 433.53L354.01 434.17M354.01 434.17L355.4 434.46M355.4 434.46L356.68 434.39M356.68 434.39L357.8 433.97"
fill="none" stroke="black" stroke-width="0.5"/>
</g>
<g><path d="M312.43 58.78L338.35 73.75"
fill="none" stroke="black" stroke-width="0.5"/>
</g>
<g><path d="M347.63 68.39L347.63 55.48"
fill="none" stroke="black" stroke-width="0.5"/>
</g>
<g><path d="M323.03 80.41L323.03 69.69"
fill="none" stroke="black" stroke-width="0.5"/>
</g>
<g><path d="M549.53 184.95L540.24 190.31"
fill="none" stroke="black" stroke-width="0.5"/>
</g>
<g><path d="M535.77 187.73L540.24 190.31"
fill="none" stroke="black" stroke-width="0.5"/>
</g>
<g><path d="M549.53 172.05L549.53 184.95"
fill="none" stroke="black" stroke-width="0.5"/>
</g>
<g><path d="M338.35 73.75L347.63 68.39"
fill="none" stroke="black" stroke-width="0.5"/>
</g>
<g><path d="M549.53 184.95L552.52 186.68"
fill="none" stroke="black" stroke-width="0.5"/>
</g>
<g><path d="M535.77 187.73L524.92 193.99"
fill="none" stroke="black" stroke-width="0.5"/>
</g>
<g><path d="M535.77 174.83L535.77 187.73"
fill="none" stroke="black" stroke-width="0.5"/>
</g>
<g><path d="M350.63 73.09L350.63 67.93"
fill="none" stroke="black" stroke-width="0.5"/>
</g>
<g><path d="M552.52 197.4L556.17 199.5"
fill="none" stroke="black" stroke-width="0.5"/>
</g>
<g><path d="M411.17 186.07L411.17 173.17"
fill="none" stroke="black" stroke-width="0.5"/>
</g>
<g><path d="M251.56 93.92L389.81 173.74"
fill="none" stroke="black" stroke-width="0.5"/>
</g>
<g><path d="M524.92 186.25L524.92 196.97"
fill="none" stroke="black" stroke-width="0.5"/>
</g>
<g><path d="M411.17 186.07L507.39 241.62"
fill="none" stroke="black" stroke-width="0.5"/>
</g>
<g><path d="M528.75 253.95L564.22 233.48"
fill="none" stroke="black" stroke-width="0.5"/>
</g>
<g><path d="M599.69 213L599.69 200.1"
fill="none" stroke="black" stroke-width="0.5"/>
</g>
<g><path d="M528.75 253.95L528.75 241.05"
fill="none" stroke="black" stroke-width="0.5"/>
</g>
<g><path d="M347.63 68.39L350.63 70.11"
fill="none" stroke="black" stroke-width="0.5"/>
</g>
<g><path d="M561.8 179.13L552.52 184.49"
fill="none" stroke="black" stroke-width="0.5"/>
</g>
<g><path d="M635.16 192.52L635.16 179.62"
fill="none" stroke="black" stroke-width="0.5"/>
</g>
<g><path d="M599.69 200.1L635.16 179.62"
fill="none" stroke="black" stroke-width="0.5"/>
</g>
<g><path d="M517.58 111.73L635.16 179.62"
fill="none" stroke="black" stroke-width="0.5"/>
</g>
<g><path d="M498.07 123L517.58 111.73"
fill="none" stroke="black" stroke-width="0.5"/>
</g>
<g><path d="M552.52 184.49L561.48 189.67"
fill="none" stroke="black" stroke-width="0.5"/>
</g>
<g><path d="M486.9 116.55L506.41 105.28"
fill="none" stroke="black" stroke-width="0.5"/>
</g>
<g><path d="M338.35 73.75L338.35 60.84"
fill="none" stroke="black" stroke-width="0.5"/>
</g>
<g><path d="M346.8 13.13L506.41 105.28"
fill="none" stroke="black" stroke-width="0.5"/>
</g>
<g><path d="M319.33 28.99L346.8 13.13"
fill="none" stroke="black" stroke-width="0.5"/>
</g>
<g><path d="M312.43 45.88L338.35 60.84"
fill="none" stroke="black" stroke-width="0.5"/>
</g>
<g><path d="M338.35 60.84L347.63 55.48"
fill="none" stroke="black" stroke-width="0.5"/>
</g>
<g><path d="M347.63 55.48L359.91 62.57"
fill="none" stroke="black" stroke-width="0.5"/>
</g>
<g><path d="M350.63 67.93L359.91 62.57"
fill="none" stroke="black" stroke-width="0.5"/>
</g>
<g><path d="M564.22 233.48L564.22 220.57"
fill="none" stroke="black" stroke-width="0.5"/>
</g>
<g><path d="M350.63 67.93L355.1 70.51"
fill="none" stroke="black" stroke-width="0.5"/>
</g>
<g><path d="M339.77 79.36L355.1 70.51"
fill="none" stroke="black" stroke-width="0.5"/>
</g>
<g><path d="M335.31 76.78L339.77 79.36"
fill="none" stroke="black" stroke-width="0.5"/>
</g>
<g><path d="M312.43 45.88L322.5 40.06"
fill="none" stroke="black" stroke-width="0.5"/>
</g>
<g><path d="M313.74 75.05L326.02 82.14"
fill="none" stroke="black" stroke-width="0.5"/>
</g>
<g><path d="M313.74 75.05L323.03 69.69"
fill="none" stroke="black" stroke-width="0.5"/>
</g>
<g><path d="M297.11 54.72L323.03 69.69"
fill="none" stroke="black" stroke-width="0.5"/>
</g>
<g><path d="M599.69 213L635.16 192.52"
fill="none" stroke="black" stroke-width="0.5"/>
</g>
<g><path d="M275.86 54.09L287.03 60.54"
fill="none" stroke="black" stroke-width="0.5"/>
</g>
<g><path d="M240.39 74.57L275.86 54.09"
fill="none" stroke="black" stroke-width="0.5"/>
</g>
<g><path d="M240.39 74.57L400 166.72"
fill="none" stroke="black" stroke-width="0.5"/>
</g>
<g><path d="M540.24 177.41L540.24 190.31"
fill="none" stroke="black" stroke-width="0.5"/>
</g>
<g><path d="M400 166.72L419.51 155.45"
fill="none" stroke="black" stroke-width="0.5"/>
</g>
<g><path d="M419.51 155.45L430.68 161.91"
fill="none" stroke="black" stroke-width="0.5"/>
</g>
<g><path d="M411.17 173.17L430.68 161.91"
fill="none" stroke="black" stroke-width="0.5"/>
</g>
<g><path d="M326.02 82.14L335.31 76.78"
fill="none" stroke="black" stroke-width="0.5"/>
</g>
<g><path d="M287.03 60.54L297.11 54.72"
fill="none" stroke="black" stroke-width="0.5"/>
</g>
<g><path d="M411.17 173.17L528.75 241.05"
fill="none" stroke="black" stroke-width="0.5"/>
</g>
<g><path d="M528.75 241.05L564.22 220.57"
fill="none" stroke="black" stroke-width="0.5"/>
</g>
<g><path d="M553.05 214.12L564.22 220.57"
fill="none" stroke="black" stroke-width="0.5"/>
</g>
<g><path d="M537.2 193.34L527.91 198.7"
fill="none" stroke="black" stroke-width="0.5"/>
</g>
<g><path d="M537.2 193.34L554.76 203.48"
fill="none" stroke="black" stroke-width="0.5"/>
</g>
<g><path d="M515.64 191.61L527.91 198.7"
fill="none" stroke="black" stroke-width="0.5"/>
</g>
<g><path d="M312.43 58.78L312.43 45.88"
fill="none" stroke="black" stroke-width="0.5"/>
</g>
<g><path d="M524.92 186.25L515.64 191.61"
fill="none" stroke="black" stroke-width="0.5"/>
</g>
<g><path d="M552.52 184.49L552.52 197.4"
fill="none" stroke="black" stroke-width="0.5"/>
</g>
<g><path d="M520.45 183.67L524.92 186.25"
fill="none" stroke="black" stroke-width="0.5"/>
</g>
<g><path d="M535.77 174.83L520.45 183.67"
fill="none" stroke="black" stroke-width="0.5"/>
</g>
<g><path d="M535.77 174.83L540.24 177.41"
fill="none" stroke="black" stroke-width="0.5"/>
</g>
<g><path d="M498.07 123L486.9 116.55"
fill="none" stroke="black" stroke-width="0.5"/>
</g>
<g><path d="M549.53 172.05L540.24 177.41"
fill="none" stroke="black" stroke-width="0.5"/>
</g>
<g><path d="M549.53 172.05L561.8 179.13"
fill="none" stroke="black" stroke-width="0.5"/>
</g>
<g><path d="M447.95 139.23L448.15 140.41M448.15 140.41L448.73 141.55M448.73 141.55L449.67 142.61M449.67 142.61L450.95 143.54M450.95 143.54L452.5 144.32M452.5 144.32L454.29 144.92M454.29 144.92L456.24 145.31M456.24 145.31L458.27 145.47M458.27 145.47L460.33 145.42M460.33 145.42L462.33 145.14M462.33 145.14L464.21 144.64M464.21 144.64L465.88 143.95M465.88 143.95L467.31 143.09M467.31 143.09L468.42 142.09M468.42 142.09L469.19 140.99M469.19 140.99L469.57 139.82M469.57 139.82L469.57 138.63M469.57 138.63L469.19 137.46M469.19 137.46L468.42 136.36M468.42 136.36L467.31 135.36M467.31 135.36L465.88 134.5M465.88 134.5L464.21 133.81M464.21 133.81L462.33 133.31M462.33 133.31L460.33 133.03M460.33 133.03L458.27 132.98M458.27 132.98L456.24 133.15M456.24 133.15L454.29 133.54M454.29 133.54L452.5 134.13M452.5 134.13L450.95 134.91M450.95 134.91L449.67 135.84M449.67 135.84L448.73 136.9M448.73 136.9L448.15 138.04M448.15 138.04L447.95 139.23"
fill="none" stroke="black" stroke-width="0.5"/>
</g>
</g>
<g id="TANGENT_LINES" display="visible">
<g><path d="M218.46 64.7L216.2 63.62M216.2 63.62L213.77 62.87M213.77 62.87L211.19 62.46M211.19 62.46L208.47 62.4M208.47 62.4L205.64 62.68M205.64 62.68L202.72 63.3M202.72 63.3L199.73 64.26M199.73 64.26L196.69 65.55M196.69 65.55L193.63 67.16M193.63 67.16L190.57 69.09M190.57 69.09L187.53 71.3M187.53 71.3L184.54 73.79M184.54 73.79L181.62 76.54M181.62 76.54L178.79 79.53M178.79 79.53L176.07 82.73M176.07 82.73L173.49 86.13M173.49 86.13L171.06 89.68M171.06 89.68L168.8 93.38M168.8 93.38L166.73 97.18M166.73 97.18L164.86 101.06M164.86 101.06L163.22 104.99M163.22 104.99L161.8 108.95M161.8 108.95L160.63 112.89M160.63 112.89L159.71 116.8M159.71 116.8L159.05 120.63M159.05 120.63L158.65 124.37M158.65 124.37L158.51 127.98M158.51 127.98L158.65 131.44M158.65 131.44L159.05 134.72M159.05 134.72L159.71 137.79M159.71 137.79L160.63 140.63M160.63 140.63L161.8 143.22M161.8 143.22L163.22 145.54M163.22 145.54L164.86 147.57M164.86 147.57L166.73 149.3M166.73 149.3L168.8 150.72"
fill="none" stroke="black" stroke-width="0.5"/>
</g>
<g><path d="M107.38 353.48L107.38 366.38"
fill="none" stroke="black" stroke-width="0.5"/>
</g>
<g><path d="M586.21 568.49L586.21 581.39"
fill="none" stroke="black" stroke-width="0.5"/>
</g>
<g><path d="M692.62 519.96L692.62 507.06"
fill="none" stroke="black" stroke-width="0.5"/>
</g>
<g><path d="M479.8 581.39L479.8 568.49"
fill="none" stroke="black" stroke-width="0.5"/>
</g>
<g><path d="M564.22 220.57L553.05 214.12"
fill="none" stroke="black" stroke-width="0.5"/>
</g>
<g><path d="M475.55 333.2L464.38 326.75"
fill="none" stroke="black" stroke-width="0.5"/>
</g>
<g><path d="M287.03 60.54L275.86 54.09"
fill="none" stroke="black" stroke-width="0.5"/>
</g>
<g><path d="M198.36 173.17L187.19 166.72"
fill="none" stroke="black" stroke-width="0.5"/>
</g>
<g><path d="M517.58 111.73L506.41 105.28"
fill="none" stroke="black" stroke-width="0.5"/>
</g>
<g><path d="M400 166.72L411.17 173.17"
fill="none" stroke="black" stroke-width="0.5"/>
</g>
<g><path d="M357.97 265.32L346.8 258.87"
fill="none" stroke="black" stroke-width="0.5"/>
</g>
</g>
</svg>
