<svg width="744.09448819" height="1052.3622047" xmlns="http://www.w3.org/2000/svg">

 <metadata id="metadata7">image/svg+xml</metadata>
 <g>
  <title>background</title>
  <rect fill="none" id="canvas_background" height="402" width="582" y="-1" x="-1"/>
 </g>
 <g>
  <title>Layer 1</title>
  <path id="path3393" d="m38.753906,33.18251l0,49.306641l22.324219,0q12.392578,0 19.160156,-6.416016q6.767578,-6.416016 6.767578,-18.28125q0,-11.777344 -6.767578,-18.193344q-6.767578,-6.416031 -19.160156,-6.416031l-22.324219,0zm-17.753906,-14.589844l40.078125,0q22.060562,0 33.310562,10.019531q11.337875,9.931641 11.337875,29.179688q0,19.423828 -11.337875,29.355469q-11.25,9.931641 -33.310562,9.931641l-22.324219,0l0,52.734375l-17.753906,0l0,-131.220703z"/>
  <path id="path3395" d="m160.746094,62.71376q-13.007813,0 -20.566406,10.195313q-7.558594,10.107422 -7.558594,27.773438q0,17.666016 7.470703,27.861328q7.558594,10.107422 20.654297,10.107422q12.919922,0 20.478516,-10.195313q7.558594,-10.195313 7.558594,-27.773438q0,-17.490219 -7.558594,-27.685547q-7.558594,-10.283203 -20.478516,-10.283203zm0,-13.710938q21.09375,0 33.134766,13.710938q12.041016,13.710938 12.041016,37.96875q0,24.169922 -12.041016,37.96875q-12.041016,13.710938 -33.134766,13.710938q-21.181641,0 -33.222656,-13.710938q-11.953125,-13.798828 -11.953125,-37.96875q0,-24.257813 11.953125,-37.96875q12.041016,-13.710938 33.222656,-13.710938z"/>
  <path id="path3397" d="m233.34375,18.592667l82.96875,0l0,14.941391l-65.214844,0l0,38.847672l62.490234,0l0,14.941391l-62.490234,0l0,47.548843l66.796875,0l0,14.941406l-84.550781,0l0,-131.220703z"/>
 </g>
</svg>