<?xml version="1.0" encoding="UTF-8" standalone="no"?>
<svg
   xmlns:dc="http://purl.org/dc/elements/1.1/"
   xmlns:cc="http://creativecommons.org/ns#"
   xmlns:rdf="http://www.w3.org/1999/02/22-rdf-syntax-ns#"
   xmlns:svg="http://www.w3.org/2000/svg"
   xmlns="http://www.w3.org/2000/svg"
   version="1.1"
   id="svg2"
   viewBox="0 0 231.54976 218.98182"
   height="61.801537mm"
   width="65.348488mm">
  <defs
     id="defs4" />
  <metadata
     id="metadata7">
    <rdf:RDF>
      <cc:Work
         rdf:about="">
        <dc:format>image/svg+xml</dc:format>
        <dc:type
           rdf:resource="http://purl.org/dc/dcmitype/StillImage" />
        <dc:title></dc:title>
      </cc:Work>
    </rdf:RDF>
  </metadata>
  <g
     transform="translate(-94.81444,-102.49726)"
     id="layer1">
    <path
       transform="matrix(1.0538599,0,0,1.1006085,-41.230005,-85.79203)"
       d="m 228.57143,280.93365 c 4.44083,4.44084 -3.79521,8.1771 -7.38096,7.38096 -9.71716,-2.15752 -11.27925,-14.60399 -7.38094,-22.14286 6.97315,-13.48528 25.08093,-15.06507 36.90476,-7.38095 17.35195,11.27676 18.96308,35.70001 7.38094,51.66667 -15.43718,21.28106 -46.36953,22.90891 -66.42858,7.38094 -25.24226,-19.54038 -26.87947,-57.0631 -7.38093,-81.19048 23.61535,-29.22149 67.77022,-30.86435 95.95239,-7.38093 33.21171,27.6744 34.85821,78.48578 7.38092,110.71429 -31.72362,37.2091 -89.20697,38.85809 -125.47619,7.38092 -41.2114,-35.76636 -42.86215,-99.93213 -7.38092,-140.2381 39.80458,-45.21721 110.66017,-46.86926 155.00001,-7.38091 49.22562,43.83955 50.87864,121.39038 7.3809,169.76191"
       id="path3338"
       style="fill:none;fill-rule:evenodd;stroke:#000000;stroke-width:1px;stroke-linecap:butt;stroke-linejoin:miter;stroke-opacity:1" />
  </g>
</svg>
